<?xml version="1.0" encoding="utf-8"?>
<!-- Generator: Adobe Illustrator 16.0.0, SVG Export Plug-In . SVG Version: 6.00 Build 0)  -->
<!DOCTYPE svg PUBLIC "-//W3C//DTD SVG 1.1//EN" "http://www.w3.org/Graphics/SVG/1.1/DTD/svg11.dtd">
<svg version="1.1" id="Layer_1" xmlns="http://www.w3.org/2000/svg" xmlns:xlink="http://www.w3.org/1999/xlink" x="0px" y="0px"
	 width="1500px" height="1500px" viewBox="0 0 1500 1500" enable-background="new 0 0 1500 1500" xml:space="preserve">
<g id="Layer_1_2_">
	<g>
		<g>
			<path fill="#010101" d="M523.188,536.736c-4.892,2.826-8.129,4.949-9.639,6.414c-1.063,0.96-2.22,2.477-3.485,4.596
				c-1.869,3.132-3.231,6.363-3.986,9.745c-0.96,4.395-1.519,8.937-1.77,13.684c-0.254,3.786-0.199,6.16,0.103,7.172l2.573,3.685
				l6.312,7.674c-0.556,3.789-0.151,6.564,1.111,8.331c-1.365,1.972-2.425,4.343-3.18,7.121c-0.758,2.98-0.96,5.804-0.607,8.432
				c0.556,3.79,2.12,7.625,4.696,11.512c2.83,4.394,6.617,8.383,11.412,11.916c3.587,2.679,7.725,4.998,12.421,6.967
				c4.14,1.77,8.181,3.032,12.167,3.79l-0.96,23.223l-0.652,20.604c-2.174,1.16-3.234,2.624-3.135,4.442
				c0.206,2.676,0.659,5.656,1.414,9.035c0.963,4.144,2.277,7.776,3.838,10.908l5.306,8.485c3.077,4.494,5.249,7.825,6.562,10.048
				l-3.083,2.174l-4.59,3.025c-3.636,2.172-6.312,3.588-8.033,4.24c-0.858-1.159-2.018-2.22-3.582-3.18
				c-1.263-0.857-2.978-1.767-5.2-2.83l-7.073-3.735l-4.542-2.826l-3.279-4.292l-4.24-5.453c-3.69-3.992-7.326-6.16-10.911-6.514
				c-1.464-0.105-2.371,0.35-2.83,1.311c-0.401,0.908-0.199,1.615,0.607,2.174c2.123,1.362,3.688,3.129,4.648,5.249l0.857,2.171
				c-2.573-0.655-5.351-1.009-8.329-0.96c-7.426,0.153-11.364,0.857-11.769,2.171c-0.453,1.767,1.063,3.285,4.445,4.545l3.234,0.707
				l3.938,0.556c1.867,0.253,3.328,0.655,4.391,1.313l-0.302,0.401c-0.857,1.111-2.023,2.071-3.587,2.933l-0.35-0.052l-5.811-0.507
				c-1.008,0-1.615,0.404-1.866,1.159c-0.202,0.758,0.151,1.468,1.111,2.223c1.259,1.012,2.926,1.821,5.046,2.477l6.465,1.06
				c2.374,0,5.502-1.413,9.392-4.188l2.319,0.1l3.334,2.827l5.656,4.949l6.459,5.3c2.326,1.77,4.343,2.881,6.01,3.337
				c3.286,0.906,8.788,0.351,16.513-1.619c5-1.311,9.241-3.128,12.726-5.453l0.453,1.06l-2.018,1.719
				c-0.658,0.758-0.86,1.462-0.658,2.12c0.253,0.655,0.909,1.06,1.866,1.211l3.636,0.202l3.636,7.069l-4.491,2.325
				c-1.066,0.704-1.519,1.564-1.417,2.521c0.052,1.012,0.659,1.719,1.818,2.071c2.374,0.958,5.303,1.263,8.736,1.012
				c0.758,1.815,2.068,4.038,3.938,6.665c1.869,2.576,3.536,4.442,4.898,5.603c2.57,2.223,12.216,7.979,28.885,17.318l6.662,3.938
				l0.81,3.334c-0.453,2.628-0.912,6.662-1.313,12.116l-0.758,16.663l0.35,16.613l0.305,8.986c-0.051,0.655-0.809,2.223-2.371,4.699
				l-3.536,5.399l-1.417-0.251c-5.3-0.758-11.361-0.758-18.173,0c-8.836,1.061-16.06,3.383-21.713,6.971
				c-1.063,0.703-2.174,1.008-3.283,0.957c-3.684-0.049-6.918,0.857-9.594,2.676c-3.282,2.273-5.303,5-6.112,8.181
				c-2.724,1.162-5.297,3.231-7.773,6.212c-1.664,2.068-3.026,4.291-4.041,6.664c-0.704,1.764-1.105,3.283-1.262,4.543
				c-0.103,0.761,0.051,1.364,0.453,1.869c0.356,0.658,0.912,0.96,1.77,0.96l5.049-0.758c-0.652,1.567-1.06,2.778-1.16,3.636
				c-0.199,1.416,0,2.627,0.607,3.685c0.553,1.063,1.362,1.618,2.422,1.77l5.3-0.659l8.685-0.452l6.415,0.96l1.917,2.778
				c1.111,0.857,2.322,1.417,3.639,1.667l2.778,0.906c1.057,0.456,1.867,0.912,2.374,1.365l3.884,3.08
				c-0.504,2.068-0.755,3.838-0.755,5.303c0.103,1.667,0.504,2.724,1.262,3.279c0.658,0.556,2.069,0.254,4.288-0.807l6.112-2.777
				l0.1-0.052c0.861,1.06,1.972,2.021,3.331,2.878c1.721,1.111,3.437,1.767,5.152,2.021l6.061,0.302l7.673-1.111
				c2.223-0.602,5.049-1.615,8.486-2.978l6.158-2.628l2.678-6.006c2.271-4.496,4.995-7.928,8.178-10.403
				c3.986-2.978,8.383-5.249,13.179-6.716c0.909,1.011,1.667,2.678,2.22,5.049l0.758,3.787c0.052,0.555,0.459,0.908,1.214,1.063
				c0.755,0.151,1.413-0.051,2.068-0.508c2.322-1.763,4.14-3.732,5.403-5.906c1.615-2.624,2.778-5.907,3.533-9.893
				c0.556-3.286,0.556-6.62,0-9.999c-0.453-3.132-1.16-5.252-2.12-6.415l1.969-5.148l2.573-6.01l2.833-5.807l0.1-0.148l4.14-5.203
				c1.263-1.869,2.477-4.143,3.585-6.716c2.222-5.101,3.481-8.435,3.735-10.099c5.2,1.567,12.073,2.627,20.602,3.183
				c6.97,0.502,12.671,0.602,17.068,0.251l8.178,10.201c2.271,2.727,4.795,6.463,7.477,11.258l6.915,13.025l8.686,16.766
				l-0.504,1.416c-0.354,1.764-0.405,3.485-0.154,5.047l-7.066,4.143c-3.129,2.069-5.858,4.292-8.13,6.563
				c-4.394,4.395-8.081,8.788-11.059,13.079c-1.468,0.147-2.679,0.456-3.636,0.906c-4.397,1.972-7.628,4.596-9.694,7.827
				c-2.123,3.283-3.385,7.522-3.835,12.726c-1.873,1.716-3.389,4.141-4.548,7.272c-1.163,2.926-1.92,5.906-2.374,8.936
				c-0.456,2.98-0.456,5.2,0,6.765c0.254,0.758,0.755,1.214,1.613,1.464l2.072-0.202l7.371-4.339
				c2.322-1.215,4.189-2.123,5.656-2.679c0.254,3.835,0.861,6.613,1.866,8.328c0.408,0.71,1.365,1.015,2.83,0.964
				c1.365-0.052,2.425-0.305,3.183-0.81l4.394-2.573l5.454-2.829l4.44-1.869l4.596-1.719l9.34,1.066l7.626-1.015
				c1.111,1.972,2.271,3.337,3.484,3.989l3.081,0.404c1.262-0.1,2.219-0.504,2.875-1.163l2.826-3.074
				c3.285-0.455,6.716-1.364,10.301-2.832c4.496-1.818,8.386-4.188,11.563-7.069c2.576-2.319,5.152-5.399,7.677-9.289
				c2.12-3.181,3.334-5.3,3.636-6.363l-0.504-5.907c-0.251-4.239,0.1-8.28,0.957-12.118c0.758-3.334,1.818-6.466,3.285-9.341
				l4.138,0.505l3.286,1.715c1.561,0.761,2.524,1.012,2.771,0.707c0.861-0.958,1.263-3.482,1.263-7.574
				c0-4.596-0.755-8.685-2.22-12.27c-1.972-4.998-4.949-8.987-8.888-11.968c-1.06-0.909-2.524-1.465-4.391-1.612l0.302-11.92
				c0.049-5.906-0.202-11.158-0.86-15.751c-0.553-3.537-1.869-7.173-3.887-10.908c-1.817-3.382-4.138-6.465-6.915-9.34l6.613-2.628
				c2.572-1.057,4.24-1.564,4.898-1.564l20.245,1.667c15.806,0.456,32.064-1.063,48.88-4.496
				c12.166-2.474,22.666-5.149,31.454-8.027c11.36-3.684,21.61-8.231,30.851-13.58c19.285-11.313,33.781-23.836,43.478-37.567
				c7.522-10.757,11.865-21.915,13.021-33.427c0.257-2.576,0.103-4.695-0.401-6.362c-0.453-1.613-1.162-2.624-2.223-2.978
				c-1.362-0.556-2.727-0.306-4.089,0.706c-0.96,0.707-2.071,1.97-3.437,3.839c-6.916,9.392-13.48,16.709-19.689,21.912
				c-9.139,7.625-20.499,13.785-34.082,18.581c-7.369,2.675-17.065,3.685-29.085,3.08c-8.987-0.405-17.216-1.516-24.69-3.282
				c-8.432-1.918-16.965-5.05-25.6-9.393l-17.014-9.491c0.755-8.078,0.148-15.905-1.869-23.53
				c-2.172-8.381-5.705-14.945-10.5-19.645c-5.357-5.3-11.313-9.087-17.829-11.409c-6.716-2.474-13.782-3.228-21.254-2.322
				c-3.787-4.391-9.192-9.09-16.259-14.088c-5.152-3.687-11.011-6.562-17.521-8.685c-6.312-2.021-12.726-3.184-19.291-3.482
				c-7.166-0.354-14.441,0.199-21.864,1.613l-20.143,4.847l-16.814,3.938c-5.961,1.263-10.4,1.972-13.333,2.071l-0.607-0.302
				l-17.165-13.229l-10.102-9.139c-0.354-0.354-1.465,0.052-3.283,1.211l-3.279-8.026l-3.588-8.483
				c-2.878-6.514-5.049-11.813-6.613-15.957c-1.16-3.279-1.715-7.066-1.564-11.36c7.066-6.613,11.463-10.956,13.179-12.925
				c4.089-4.695,6.662-9.189,7.725-13.48c1.214-4.699,1.214-9.494-0.048-14.342c-0.96-3.989-3.382-10.249-7.272-18.835l-5.454-11.31
				l-5.656-11.762l-0.453-2.576c-1.365-7.426-3.835-12.272-7.423-14.544c-1.767-1.108-3.989-1.615-6.617-1.461
				c-2.524,0.1-4.795,0.706-6.867,1.763l-8.229,4.95c-3.887,2.274-6.466,3.636-7.825,4.14c-2.878,1.063-6.263,1.818-10.252,2.175
				c-4.14,0.401-9.491,0.505-16.057,0.354l-18.681-0.456c-5.907-0.154-9.344-0.154-10.201,0
				C531.922,532.143,528.389,533.81,523.188,536.736"/>
		</g>
		<g>
			<path fill="#162919" d="M504.309,571.172c0.248-4.748,0.803-9.289,1.757-13.687c0.758-3.382,2.12-6.616,3.989-9.745
				c1.266-2.12,2.425-3.636,3.482-4.593c1.519-1.465,4.75-3.585,9.651-6.415c5.197-2.926,8.73-4.593,10.651-4.997
				c0.857-0.151,4.294-0.151,10.198,0l18.681,0.456c6.568,0.147,11.917,0.048,16.06-0.354c3.989-0.356,7.369-1.111,10.25-2.174
				c1.365-0.505,3.938-1.87,7.828-4.141l8.232-4.949c2.066-1.061,4.336-1.664,6.864-1.768c2.624-0.15,4.847,0.354,6.617,1.465
				c3.582,2.271,6.058,7.121,7.423,14.544l0.453,2.576l5.653,11.763l5.454,11.312c3.89,8.583,6.312,14.843,7.272,18.832
				c1.262,4.851,1.262,9.643,0.048,14.342c-1.057,4.288-3.63,8.784-7.725,13.48c-1.715,1.969-6.106,6.312-13.179,12.925
				c-0.151,4.291,0.404,8.078,1.564,11.361c1.567,4.14,3.738,9.442,6.616,15.957l3.584,8.482l3.286,8.026
				c1.815-1.162,2.926-1.563,3.28-1.211l10.098,9.139l17.168,13.229l0.607,0.303c2.93-0.1,7.375-0.807,13.33-2.069l16.814-3.94
				l20.148-4.848c7.42-1.413,14.692-1.965,21.861-1.615c6.565,0.305,12.977,1.465,19.288,3.485
				c6.517,2.122,12.369,4.997,17.521,8.685c7.069,4.998,12.472,9.694,16.259,14.088c7.474-0.909,14.544-0.15,21.26,2.325
				c6.511,2.319,12.469,6.106,17.823,11.409c4.795,4.695,8.328,11.261,10.503,19.641c2.017,7.626,2.621,15.45,1.866,23.531
				l17.014,9.491c8.637,4.343,17.172,7.475,25.603,9.392c7.472,1.768,15.704,2.879,24.69,3.28c12.02,0.61,21.713-0.401,29.082-3.077
				c13.583-4.796,24.943-10.956,34.082-18.582c6.215-5.199,12.776-12.523,19.695-21.914c1.365-1.867,2.473-3.129,3.434-3.839
				c1.361-1.009,2.727-1.263,4.086-0.704c1.063,0.354,1.77,1.362,2.226,2.979c0.504,1.666,0.655,3.786,0.404,6.362
				c-1.163,11.512-5.505,22.67-13.027,33.424c-9.697,13.737-24.187,26.255-43.474,37.567c-9.244,5.352-19.494,9.896-30.854,13.583
				c-8.782,2.878-19.284,5.557-31.455,8.03c-16.814,3.434-33.073,4.943-48.876,4.493l-20.248-1.667
				c-0.656,0-2.326,0.505-4.898,1.564l-6.613,2.627c2.777,2.879,5.098,5.955,6.915,9.341c2.023,3.735,3.334,7.372,3.893,10.905
				c0.655,4.596,0.903,9.848,0.854,15.754l-0.302,11.916c1.866,0.151,3.331,0.707,4.391,1.616c3.938,2.98,6.922,6.967,8.891,11.968
				c1.462,3.584,2.22,7.674,2.22,12.27c0,4.092-0.402,6.617-1.263,7.574c-0.251,0.305-1.211,0.051-2.774-0.704l-3.286-1.718
				l-4.138-0.505c-1.465,2.878-2.524,6.007-3.285,9.341c-0.857,3.838-1.208,7.879-0.954,12.119l0.501,5.906
				c-0.302,1.057-1.516,3.18-3.636,6.363c-2.524,3.887-5.098,6.97-7.674,9.292c-3.18,2.878-7.069,5.248-11.563,7.069
				c-3.585,1.461-7.019,2.371-10.298,2.826l2.119-2.878c0.858-1.361,1.414-2.774,1.668-4.191c0.453-2.37-0.055-4.645-1.517-6.915
				c-1.618-2.374-3.685-3.637-6.263-3.787c-2.525-0.202-4.741,0.404-6.613,1.818c-2.066,1.513-3.332,3.684-3.685,6.462
				c-0.254,2.171,0,4.442,0.857,6.813l1.163,2.527l-7.625,1.008l-9.344-1.06l2.778-2.068c0.758-1.465,0.857-3.688,0.305-6.616
				c-0.606-2.927-1.821-6.209-3.636-9.896c-1.767-3.633-4.041-6.312-6.919-8.029c-2.068-1.26-3.938-1.815-5.604-1.716
				c-1.365,0.1-2.978,1.012-4.85,2.676c-2.168,1.969-3.983,4.548-5.502,7.625l-0.701,1.817l-1.066,2.83l-0.051,0.354
				c-0.858-1.818-2.066-3.434-3.533-4.847c-1.365-1.111-2.322-1.667-2.878-1.667c-0.758,0-1.616,0.302-2.673,0.96l-2.226,1.869
				c0.456-5.203,1.718-9.442,3.838-12.726c2.071-3.234,5.303-5.858,9.694-7.827c0.96-0.453,2.174-0.759,3.636-0.909
				c2.978-4.288,6.668-8.682,11.059-13.076c2.271-2.273,5.001-4.493,8.13-6.563l7.072-4.143c-0.254-1.564-0.205-3.283,0.148-5.047
				l0.504-1.416l-8.686-16.766l-6.915-13.025c-2.676-4.795-5.2-8.534-7.475-11.261l-8.181-10.198
				c-4.391,0.351-10.098,0.251-17.065-0.251c-8.531-0.559-15.401-1.618-20.604-3.183c-0.248,1.664-1.513,4.998-3.733,10.099
				c-1.111,2.573-2.322,4.847-3.584,6.716l-4.14,5.2l-0.103,0.151l-2.83,5.807l-2.576,6.01l-1.966,5.148
				c0.957,1.163,1.667,3.283,2.117,6.415c0.559,3.379,0.559,6.713,0,9.995c-0.755,3.989-1.915,7.272-3.533,9.896
				c-1.259,2.172-3.077,4.141-5.402,5.906c-0.655,0.457-1.314,0.656-2.072,0.508c-0.755-0.154-1.157-0.508-1.211-1.063l-0.755-3.787
				c-0.556-2.371-1.313-4.038-2.223-5.049c-4.795,1.467-9.189,3.738-13.179,6.716c-3.177,2.474-5.907,5.907-8.178,10.4l-2.682,6.009
				l-6.155,2.628c-3.437,1.362-6.263,2.374-8.485,2.978l-7.674,1.111l-6.058-0.302c-1.718-0.254-3.434-0.909-5.152-2.021
				l-3.331-2.83l3.08-0.755l3.129-0.404c1.063-0.151,1.818-0.405,2.325-0.758c0.96-0.704,1.764-1.966,2.374-3.735
				c0.758-2.12,0.96-4.439,0.604-6.916c-0.35-2.174-1.009-3.989-2.072-5.405c-0.803-1.111-1.715-1.918-2.675-2.371
				c-1.359-0.658-3.177-0.658-5.502,0c-3.18,0.861-5.958,2.878-8.28,6.161c-1.163,1.715-2.271,3.935-3.28,6.664l-0.707,2.525
				l-3.89-3.08c-0.507-0.453-1.313-0.909-2.374-1.365l-2.778-0.909c-1.311-0.251-2.524-0.81-3.636-1.667l-1.917-2.775l3.434,1.111
				c1.208,0.151,2.171-0.103,2.875-0.758c1.667-1.667,3.083-3.738,4.243-6.16c1.567-3.482,2.274-7.272,2.223-11.464
				c-0.055-4.391-1.163-7.927-3.434-10.552c-1.414-1.77-2.929-2.777-4.494-3.131l-5.001,0.404c-2.624,0.652-5.254,1.914-7.828,3.838
				l-3.279,2.676c0.048-0.857,0.048-1.618-0.048-2.271c-0.206-1.417-0.71-2.329-1.564-2.781l-1.111-0.052l-2.476,0.71
				c0.809-3.181,2.83-5.91,6.109-8.181c2.676-1.818,5.907-2.728,9.594-2.676c1.108,0.051,2.22-0.254,3.28-0.961
				c5.659-3.584,12.876-5.906,21.713-6.97c6.818-0.755,12.876-0.755,18.179,0l1.414,0.251l3.533-5.396
				c1.567-2.477,2.325-4.044,2.374-4.699l-0.302-8.986l-0.353-16.613l0.755-16.663c0.402-5.454,0.861-9.491,1.314-12.118
				l-0.81-3.332l-6.662-3.938c-16.663-9.34-26.309-15.096-28.882-17.318c-1.365-1.16-3.032-3.029-4.898-5.605
				c-1.867-2.624-3.183-4.847-3.938-6.664c-3.437,0.253-6.363-0.052-8.736-1.01c-1.163-0.355-1.767-1.06-1.815-2.071
				c-0.103-0.957,0.351-1.817,1.414-2.524l4.494-2.325l-3.636-7.066l-3.639-0.206c-0.958-0.147-1.616-0.555-1.866-1.207
				c-0.203-0.658,0-1.362,0.655-2.12l2.017-1.719l-0.453-1.06c-3.479,2.322-7.725,4.141-12.723,5.453
				c-7.728,1.97-13.227,2.522-16.509,1.613c-1.667-0.453-3.688-1.562-6.01-3.331l-6.462-5.3l-5.656-4.949l-3.331-2.827l-2.325-0.105
				c-3.887,2.778-7.015,4.191-9.392,4.191l-6.462-1.057c-2.12-0.655-3.787-1.465-5.049-2.477c-0.958-0.755-1.311-1.465-1.111-2.223
				c0.253-0.755,0.857-1.159,1.872-1.159l5.804,0.507l0.354,0.049c1.567-0.858,2.73-1.818,3.59-2.93l0.296-0.404
				c-1.057-0.655-2.525-1.061-4.391-1.311l-3.938-0.556l-3.231-0.707c-3.385-1.262-4.898-2.781-4.445-4.545
				c0.404-1.313,4.342-2.021,11.765-2.171c2.978-0.052,5.756,0.305,8.332,0.96l-0.861-2.171c-0.957-2.123-2.524-3.887-4.645-5.252
				c-0.809-0.556-1.009-1.265-0.604-2.171c0.453-0.961,1.362-1.416,2.827-1.314c3.588,0.354,7.218,2.525,10.908,6.515l4.24,5.454
				l3.283,4.294l4.545,2.823l7.07,3.738c2.219,1.058,3.938,1.97,5.203,2.827c1.564,0.957,2.724,2.021,3.582,3.183
				c1.715-0.658,4.391-2.068,8.03-4.24l4.593-3.031l3.08-2.172c-1.313-2.219-3.485-5.553-6.565-10.047l-5.303-8.485
				c-1.561-3.129-2.875-6.762-3.835-10.905c-0.755-3.382-1.208-6.359-1.414-9.038c-0.103-1.818,0.96-3.279,3.129-4.442l0.658-20.602
				l0.96-23.226c-3.993-0.755-8.027-2.021-12.17-3.787c-4.699-1.969-8.836-4.291-12.423-6.97
				c-4.792-3.533-8.583-7.522-11.409-11.916c-2.573-3.887-4.14-7.725-4.699-11.512c-0.351-2.625-0.145-5.451,0.61-8.432
				c0.758-2.775,1.818-5.149,3.18-7.118c-1.259-1.77-1.664-4.545-1.111-8.331l-6.308-7.677l-2.579-3.685
				C504.103,577.335,504.055,574.961,504.309,571.172"/>
		</g>
		<path fill="#326A35" d="M579.286,621.615l-1.057-1.92l-1.262,0.253c0.051,1.211-0.256,2.524-1.011,3.986l-2.22,3.334l0.051,0.151
			l0.299,0.86l2.322-1.263l0.659-1.413L579.286,621.615"/>
		<path fill="#326A35" d="M587.621,620.354l1.41-2.628l-0.607-1.111l-1.105,0.405c-0.103,1.265-0.404,2.527-0.912,3.687
			l-0.707,1.716l1.464-0.909l0.302-0.857L587.621,620.354"/>
		<path fill="#326A35" d="M560.251,622.223l-4.188-1.114c-0.658,1.111-1.365,2.12-2.12,3.08c-1.467,1.866-2.827,2.727-4.089,2.573
			c-1.16-0.148-2.174-1.664-3.08-4.491c-0.556-1.567-0.858-3.382-0.963-5.505l-1.564-0.807c-1.06,0.707-2.068,1.667-3.029,2.878
			c-1.461,1.97-2.675,2.878-3.739,2.624c-0.652-0.103-1.311-0.706-2.017-1.865l-1.311-3.485l-0.507-4.191l-2.319,2.473
			c-0.864,0.858-1.516,1.211-2.023,1.111c-0.707-0.103-1.413-0.81-2.071-2.071l-1.365-3.633c-0.55-2.271-0.854-4.947-0.803-7.931
			l-0.96-0.957l-1.461,1.513c0.35,0.658,0.604,1.567,0.704,2.83c0.1,1.06,0.051,2.223-0.148,3.536l0.604,0.151
			c1.057,0.655,1.917,2.829,2.473,6.514l0.154,1.564l5.046,4.798l6.411,3.938l1.619-1.821c0.958-0.957,1.915-1.664,2.875-2.117
			l1.667-0.305c0.556,0.202,1.012,0.81,1.468,1.821c0.549,1.159,0.957,2.572,1.208,4.291l0.205,2.021l5.146,1.563l0.456-0.758
			l1.969-2.576c2.374-2.777,4.041-4.085,4.998-3.938c0.556,0.052,1.111,0.508,1.667,1.263c0.556,0.857,0.96,1.817,1.111,2.978
			l0.151,3.083l3.482-0.559l0.456-1.263l2.374-4.795l-0.655-2.573C564.742,622.624,562.121,622.672,560.251,622.223"/>
		<path fill="#AED57C" d="M586.962,777.283c-1.867-2.624-3.183-4.847-3.938-6.664l2.524-0.303c1.616-0.354,3.382-0.96,5.357-1.814
			l2.875-1.166c0.404-0.049,4.342,1.468,11.765,4.545c8.027,3.385,13.426,5.352,16.156,5.91l4.24,0.15
			c1.365-0.25,2.727-0.96,3.989-2.068l3.283-3.636c-0.051,2.068-0.658,4.14-1.92,6.16c1.567-0.758,2.627-2.226,3.128-4.396
			l0.206-1.157l12.523,9.643l6.514,3.537l7.169,3.028c2.223,0.957,4.898,2.22,8.027,3.784c3.382,1.767,6.112,3.385,8.184,4.747
			l6.157,4.343l4.696,3.183l4.844,1.664l4.246,1.313c0.755,0.302,2.625,1.465,5.702,3.485l5.858,3.783
			c0.356,0.251,0.556,0.659,0.607,1.111l0.305,1.163l2.319,1.26l0.206,1.416c0.707,3.787,1.869,7.221,3.485,10.301
			c3.787,7.169,8.479,11.965,14.084,14.44l1.619,2.524l2.065,2.93c-4.391,0.351-10.098,0.251-17.065-0.251
			c-8.531-0.562-15.398-1.621-20.599-3.186l-3.388-1.208c-10.703-3.89-22.111-10.657-34.282-20.3
			c-9.343-7.423-18.732-14.085-28.172-19.942l-2.328-1.469l-6.662-3.938c-16.663-9.34-26.309-15.096-28.882-17.318
			C590.496,781.729,588.829,779.859,586.962,777.283"/>
		<path fill="#AED57C" d="M578.38,762.691l4.998-2.223c1.011-0.553,1.362-1.211,1.111-1.866c-0.151-0.354-0.758-0.857-1.869-1.413
			c-1.214-0.658-2.579-1.111-4.092-1.263l-3.784-0.305L578.38,762.691"/>
		<path fill="#AED57C" d="M585.748,670.846c-0.453-2.172-1.259-5.352-2.422-9.443l-1.365-5.805l0.507-6.97l0.453-5.907
			c0-0.96-0.251-1.92-0.755-2.877l-0.96,0.606c-4.596,2.728-8.585,4.696-11.968,5.907c-3.989,1.513-7.728,2.219-11.31,2.171
			l-4.85-0.354l-1.763-0.404l-0.963,23.226l-0.655,20.602c-2.174,1.163-3.231,2.627-3.132,4.445
			c0.202,2.676,0.655,5.653,1.417,9.035c0.957,4.144,2.271,7.776,3.835,10.908l5.303,8.485c3.077,4.491,5.249,7.825,6.565,10.048
			l1.108,1.865c2.322,3.99,4.291,7.726,5.855,11.159l1.262,2.826l1.873-0.957c1.461-0.658,3.026-1.009,4.59-1.06
			c2.984-0.151,5.907,0.353,8.788,1.516l0.755,0.25c0.103-0.054,0.103-0.201,0.054-0.555c-0.253-1.314-0.96-2.474-2.071-3.434
			c-0.858-0.858-2.168-1.719-3.992-2.676c-1.111-0.607-1.459-1.365-1.111-2.322c0.362-0.857,1.066-1.414,2.074-1.567
			c2.12-0.251,3.989,0.052,5.656,0.81c1.915,0.957,3.835,2.777,5.804,5.502c1.115,1.667,2.072,3.938,2.83,6.918l1.163,3.986
			l11.967,3.992c4.394,1.362,8.126,2.778,11.258,4.34l1.416-3.077l-3.738-4.144l-2.676-3.279l-2.875-2.223
			c-2.379-1.567-4.294-3.229-5.81-5.098l-4.693-6.616l-3.639-5.805l-4.189-5.101c-1.619-1.969-2.675-3.587-3.183-4.747
			c-1.009-2.675-1.667-5.807-2.021-9.494c-0.356-3.077-0.408-6.007-0.148-8.686l2.168-2.168h-0.103l0.456-0.154l-2.02-7.772
			l-0.405-5.001l-0.151-5.149c-0.151-1.266-0.707-3.484-1.667-6.668L585.748,670.846"/>
		<path fill="#B5B5B5" d="M609.584,610.101c0.456,0,1.009-0.401,1.616-1.159c0.658-0.758,1.111-1.613,1.365-2.573
			c0.251-1.263,0.251-2.778,0.097-4.593l-0.857,0.703l-4.898,3.938l-9.238,6.059l-1.917,1.015l-4.953,2.168l-2.368,0.96l0.601,1.111
			l-1.41,2.625l-0.154,0.302l-0.302,0.857c-0.402,1.616-0.402,2.524,0,2.679l1.815,0.25l2.936-0.507
			c1.812-0.601,2.82-1.41,2.978-2.474l0.097-0.755c1.869,0.251,3.636-0.305,5.254-1.718c1.16-0.857,1.767-1.918,1.818-3.129
			c0.453-0.103,0.857-0.556,1.311-1.313c1.667,0.251,3.081-0.354,4.24-1.77c0.809-1.009,1.166-2.069,1.063-3.229
			C609.025,609.901,609.333,610.101,609.584,610.101"/>
		<path fill="#B5B5B5" d="M586.207,621.311l-1.063,2.071c0.556,0.858,0.809,1.619,0.707,2.322c-0.103,1.163-1.314,2.322-3.582,3.434
			l-3.183,1.263c-0.909,0.202-1.715,0.202-2.422,0c-0.761-0.151-1.012-0.707-0.858-1.564l0.601-1.818l0.659-1.413l2.219-3.989
			l-1.057-1.92l0.906-0.251l7.224-2.071l0.96-0.354c-0.103,1.265-0.404,2.527-0.912,3.687L586.207,621.311"/>
		<path fill="#B5B5B5" d="M569.743,621.77l-1.664,0.302l0.655,2.573l-2.374,4.799l-0.459,1.262c-0.501,1.513-0.652,2.374-0.45,2.527
			c0.402,0.453,1.012,0.756,1.767,0.958l3.135-0.306c1.16-0.302,2.12-0.857,2.978-1.612l1.211-1.519
			c0.1-0.251-0.051-1.061-0.456-2.471l-0.302-0.863l-0.051-0.148l2.219-3.334c0.758-1.461,1.063-2.778,1.012-3.989L569.743,621.77"
			/>
		<path fill="#B5B5B5" d="M552.527,630.451l-0.456,0.758l-1.111,2.221l1.413,1.412c1.163,0.762,2.576,1.163,4.14,1.212
			c1.567,0,2.83-0.3,3.887-0.906c0.761-0.453,1.317-0.96,1.567-1.567l0.456-2.322l-0.151-3.08c-0.151-1.163-0.556-2.12-1.111-2.978
			c-0.556-0.759-1.111-1.211-1.667-1.266c-0.96-0.147-2.625,1.163-5.001,3.94L552.527,630.451"/>
		<path fill="#B5B5B5" d="M545.509,623.334c-0.456-1.012-0.909-1.619-1.465-1.818l-1.667,0.302c-0.96,0.456-1.917,1.163-2.881,2.12
			l-1.613,1.821c-1.365,1.564-1.969,2.775-1.872,3.685l1.721,1.817c1.009,0.81,2.065,1.413,3.231,1.818l3.282,0.504l2.069-0.302
			c0.556-0.305,0.761-1.516,0.607-3.636l-0.202-2.021C546.466,625.906,546.061,624.493,545.509,623.334"/>
		<path fill="#B5B5B5" d="M546.871,617.272l-1.06-0.507c0.1,2.123,0.401,3.94,0.957,5.505c0.912,2.827,1.921,4.343,3.083,4.493
			c1.259,0.151,2.625-0.706,4.089-2.575c0.758-0.96,1.465-1.966,2.12-3.08l-1.163-0.453L546.871,617.272"/>
		<path fill="#B5B5B5" d="M533.641,611.922l0.504,4.191l1.317,3.482c0.707,1.165,1.359,1.766,2.017,1.869
			c1.06,0.25,2.271-0.656,3.736-2.628c0.957-1.211,1.966-2.168,3.032-2.875l-1.012-0.504c-2.978-1.67-5.907-3.585-8.788-5.659
			l-0.806-0.704c-1.87-1.313-3.633-2.727-5.3-4.243l-3.283-2.98c-0.051,2.98,0.25,5.656,0.806,7.928l1.365,3.636
			c0.658,1.263,1.365,1.966,2.071,2.071c0.501,0.1,1.16-0.254,2.018-1.114L533.641,611.922"/>
		<path fill="#B5B5B5" d="M514.404,598.036l0.909,0.958l0.658,0.355c0.501,0.203,1.108-0.254,1.866-1.313l0.154,1.616l0.755,2.775
			l-1.414,2.523c-0.556,1.263-0.86,2.525-0.909,3.787l0.405,1.921l0.857,1.111l1.715,1.009l-1.009,2.524l0.501,1.263l1.924,3.183
			l0.299,0.351l2.325,2.524c1.06,0.404,1.866,0.305,2.524-0.251c0.556-0.604,0.707-2.37,0.453-5.354l-0.151-1.562
			c-0.556-3.688-1.414-5.861-2.473-6.517l-0.607-0.151c0.206-1.313,0.254-2.474,0.151-3.536c-0.097-1.263-0.354-2.168-0.707-2.826
			l1.468-1.514l-10.808-11.209C512.74,593.491,513.145,596.267,514.404,598.036"/>
		<path fill="#E2ECC1" d="M581.207,640.45c0.302,0.655,0.453,1.513,0.453,2.576l-0.501,5.808l-0.354,6.915l1.311,6.01
			c1.263,4.137,2.12,7.319,2.625,9.591l2.425,9.09c0.909,3.029,1.41,5.203,1.561,6.563l0.254,5.203l0.556,5.151l2.023,7.42
			c-8.583,1.564-17.171,1.06-25.802-1.513c-2.778-0.857-5.811-2.322-8.993-4.497c-2.268-1.513-3.986-2.823-5.046-3.886l0.556-7.726
			c0.704-6.359,1.111-11.412,1.262-15.198c0.203-4.95,0.052-12.874-0.453-23.782l4.847,0.354c3.582,0.048,7.32-0.658,11.31-2.171
			C572.621,645.146,576.61,643.178,581.207,640.45"/>
		<path fill="#FFFFFF" d="M516.068,597.731c-0.402-0.251-0.803-0.909-1.208-2.069c-0.456-1.464-0.658-3.08-0.507-4.798l3.639,3.89
			l-0.154,1.513l-1.008,1.159C516.473,597.731,516.222,597.834,516.068,597.731"/>
		<path fill="#FFFFFF" d="M519.052,599.652l-0.254-3.99l4.542,4.545l-1.715,1.918l-1.314,1.111
			C519.807,603.186,519.402,602.022,519.052,599.652"/>
		<path fill="#2E8842" d="M523.442,622.624c1.06,0.404,1.866,0.305,2.524-0.247c0.556-0.607,0.707-2.374,0.453-5.354l5.049,4.798
			l6.411,3.938c-1.362,1.564-1.966,2.775-1.869,3.685l1.721,1.82c1.009,0.807,2.065,1.41,3.231,1.815l3.279,0.504l2.072-0.302
			c0.556-0.305,0.758-1.516,0.604-3.636l5.152,1.563l-1.111,2.221l1.413,1.416c1.163,0.758,2.576,1.162,4.14,1.211
			c1.567,0,2.83-0.303,3.887-0.906c0.761-0.456,1.317-0.96,1.567-1.567l0.456-2.322l3.479-0.556
			c-0.501,1.513-0.652,2.374-0.45,2.527c0.402,0.453,1.012,0.756,1.767,0.958l3.135-0.306c1.16-0.302,2.12-0.857,2.978-1.612
			l1.211-1.519c0.1-0.251-0.051-1.061-0.456-2.471l2.322-1.262l-0.607,1.817c-0.151,0.854,0.103,1.41,0.861,1.564
			c0.704,0.199,1.513,0.199,2.419,0l3.183-1.266c2.271-1.108,3.485-2.271,3.588-3.431c0.103-0.706-0.151-1.461-0.707-2.325
			l0.556-0.96l1.464-0.906c-0.402,1.615-0.402,2.524,0,2.676l1.815,0.254l2.936-0.508c1.812-0.604,2.82-1.41,2.978-2.473
			l0.097-0.759c1.869,0.251,3.636-0.302,5.254-1.718c1.16-0.857,1.767-1.918,1.818-3.129c0.453-0.103,0.857-0.556,1.311-1.313
			c1.667,0.251,3.081-0.354,4.24-1.77c0.809-1.006,1.166-2.065,1.063-3.229c0.351,0.354,0.659,0.556,0.909,0.556
			c0.456,0,1.009-0.404,1.616-1.162c0.658-0.758,1.111-1.613,1.365-2.573c0.251-1.263,0.251-2.778,0.097-4.593l2.93-2.58
			c-0.151,2.775,0,5.255,0.456,7.324c-3.231,3.279-6.665,6.462-10.349,9.594c-5.659,4.795-10.859,8.682-15.606,11.611
			c-7.217,4.294-13.179,7.32-17.872,9.038c-4.445,1.616-8.836,2.425-13.233,2.425c-3.938,0.049-7.571-0.507-10.854-1.666
			c-2.422-0.759-5.907-2.426-10.5-4.898C531.774,629.491,527.027,626.16,523.442,622.624"/>
		<path fill="#B4D446" d="M556.06,621.108l4.191,1.114c1.87,0.449,4.491,0.401,7.828-0.151l0.655,2.573l-2.374,4.795l-3.938,0.81
			l-0.151-2.071c-0.151-1.16-0.556-2.12-1.111-2.978c-0.556-0.755-1.111-1.211-1.667-1.263c-0.96-0.147-2.625,1.16-5.001,3.938
			l-1.966,2.576c-1.87-0.453-3.736-1.06-5.656-1.917l-0.151-0.909c-0.254-1.719-0.659-3.132-1.211-4.291
			c-0.456-1.012-0.909-1.619-1.465-1.821l-1.667,0.305c-0.96,0.453-1.917,1.16-2.881,2.117l-0.906,0.864
			c-2.675-1.163-4.795-2.426-6.462-3.787l-5.858-5.554c-0.556-3.688-1.414-5.861-2.473-6.517l-0.607-0.151
			c0.206-1.313,0.254-2.474,0.151-3.536c-0.097-1.263-0.354-2.168-0.707-2.826l1.468-1.514l0.96,0.957
			c-0.054,2.98,0.248,5.656,0.803,7.928l1.365,3.636c0.658,1.263,1.365,1.966,2.071,2.068c0.501,0.103,1.16-0.251,2.021-1.111
			l2.322-2.473l0.501,4.191l1.317,3.485c0.707,1.159,1.359,1.766,2.017,1.865c1.06,0.254,2.271-0.654,3.736-2.624
			c0.957-1.211,1.966-2.168,3.032-2.878l1.564,0.807c0.1,2.123,0.401,3.94,0.957,5.505c0.912,2.827,1.921,4.343,3.083,4.493
			c1.259,0.151,2.625-0.706,4.089-2.575C554.698,623.229,555.405,622.223,556.06,621.108"/>
		<path fill="#FFFFFF" d="M554.897,620.655l-1.866,2.727c-1.365,1.667-2.371,2.477-2.978,2.322
			c-0.861-0.199-1.619-1.462-2.223-3.735l-0.96-4.696L554.897,620.655"/>
		<path fill="#FFFFFF" d="M533.641,609.092l-0.1,1.362l-2.326,2.374l-1.818,1.516c-0.404-0.052-0.806-0.504-1.208-1.313
			l-1.111-3.331l-1.063-6.919l2.326,2.071C530.008,606.365,531.771,607.781,533.641,609.092"/>
		<path fill="#FFFFFF" d="M543.234,615.455l-2.47,2.425c-1.262,1.866-2.277,2.676-3.032,2.474c-0.912-0.254-1.667-1.768-2.271-4.494
			l-1.012-6.061C537.328,611.867,540.257,613.788,543.234,615.455"/>
		<path fill="#FFFFFF" d="M542.377,622.926l1.365-0.401c0.857,0.354,1.461,2.12,1.914,5.249l0.453,3.484
			c0,0.758-0.097,1.214-0.35,1.365c-0.758,0.401-2.271,0.254-4.545-0.508l-2.775-1.361l-1.564-1.314
			c-0.151-0.35,0.151-1.008,0.857-1.966l2.223-2.425L542.377,622.926"/>
		<path fill="#FFFFFF" d="M552.222,633.227l0.861-1.664l2.322-2.98l2.223-2.576l1.564-0.957c0.453,0.049,0.909,0.404,1.263,1.111
			c0.404,0.755,0.707,1.615,0.857,2.573c0.254,1.869,0.199,3.282-0.254,4.343c-0.151,0.455-0.556,0.908-1.262,1.316
			c-0.857,0.504-1.917,0.755-3.18,0.703c-1.362,0-2.473-0.302-3.385-0.854L552.222,633.227"/>
		<path fill="#FFFFFF" d="M569.036,625.604l1.317,2.271l2.12,0.303l0.504-0.303c0.607,1.414,0.855,2.322,0.755,2.68l-1.163,1.159
			c-0.655,0.606-1.461,1.009-2.422,1.263l-2.374,0.15l-1.262-0.453c-0.151-0.15,0.048-1.06,0.707-2.829L569.036,625.604"/>
		<path fill="#FFFFFF" d="M569.036,621.817l0.707-0.048l6.257-1.52c-0.148,1.111-0.501,2.274-1.156,3.434
			c-0.909,1.768-1.719,2.881-2.474,3.331l-1.313-0.048C570.601,626.514,569.894,624.795,569.036,621.817"/>
		<path fill="#B4D446" d="M576.963,619.948l1.262-0.253l1.06,1.92l-2.223,3.989l-3.279,1.815l-0.051-0.151l2.219-3.334
			C576.71,622.473,577.015,621.159,576.963,619.948"/>
		<path fill="#FFFFFF" d="M579.742,622.373l0.299,0.402l1.468,2.02c0.556,0.604,1.06,0.909,1.516,0.909
			c0.453,0,1.009-0.504,1.715-1.564c0.253,0.604,0.305,1.16,0.205,1.616l-0.963,1.361l-2.219,1.314
			c-1.87,0.96-3.434,1.311-4.645,1.06l-0.456-0.202v-0.556l1.362-3.129L579.742,622.373"/>
		<path fill="#FFFFFF" d="M580.702,621.969l-1.567-2.524l7.224-2.069l-0.96,3.181c-1.166,2.929-1.92,4.343-2.374,4.243l-1.111-0.861
			L580.702,621.969"/>
		<path fill="#B4D446" d="M587.318,617.02l1.111-0.402l0.601,1.111l-1.41,2.625l-0.154,0.302l-1.26,0.655l0.2-0.604
			C586.914,619.547,587.216,618.284,587.318,617.02"/>
		<path fill="#FFFFFF" d="M594.029,620.202c0.154,0.553,0.154,0.906,0,1.159c-0.248,0.607-1.16,1.211-2.622,1.818l-2.222,0.504
			h-1.419l0.054-1.111l0.61-1.917l1.057-2.171l0.302,0.504c0.96,1.416,2.023,2.071,3.128,2.02L594.029,620.202"/>
		<path fill="#FFFFFF" d="M590.598,618.182l-1.265-1.918l1.464-0.606l4.953-2.168c-0.202,1.208-0.559,2.422-1.012,3.581
			l-1.163,2.322l-1.06,0.81L590.598,618.182"/>
		<path fill="#FFFFFF" d="M596.71,612.981l0.957-0.507l1.567,2.071l2.018,1.313c0.048,0.81-0.556,1.715-1.818,2.676
			c-1.365,1.009-2.929,1.513-4.696,1.513l-0.202-0.452l1.214-2.323C596.203,616.113,596.556,614.648,596.71,612.981"/>
		<path fill="#FFFFFF" d="M598.426,612.021l5.405-3.431l-0.507,3.282c-0.507,2.166-1.015,3.279-1.516,3.279l-1.921-1.364
			L598.426,612.021"/>
		<path fill="#FFFFFF" d="M604.885,607.933l1.111-0.81l2.02,1.667c0.151,1.111-0.202,2.271-0.96,3.434
			c-0.807,1.06-1.918,1.664-3.382,1.815l0.755-2.32L604.885,607.933"/>
		<path fill="#FFFFFF" d="M609.735,609.346l-1.265-1.111l-1.564-1.818l4.896-3.938c0.256,1.365,0.154,2.627-0.251,3.787
			C610.897,608.334,610.291,609.346,609.735,609.346"/>
		<path fill="#FFFFFF" d="M524.403,611.565l0.604,3.938c0.453,3.89,0.507,6.01,0.205,6.314l-1.468-0.153l-2.627-1.564l-0.299-0.354
			l-1.924-3.18l1.77-3.79l1.516-2.319c0.453-0.508,0.857-0.607,1.262-0.356C523.847,610.255,524.149,610.711,524.403,611.565"/>
		<polyline fill="#2E8842" points="518.393,615.304 517.687,611.771 519.402,612.776 518.393,615.304 		"/>
		<path fill="#FFFFFF" d="M519.858,611.922c-1.67-0.453-2.473-1.77-2.376-3.941l0.61-2.524l1.108-2.171l0.964,0.86
			c0.35,0.1,0.906-0.202,1.715-0.96l0.453,1.917l0.054,3.989C521.522,609.597,520.715,610.557,519.858,611.922"/>
		<polyline fill="#2E8842" points="600.34,526.185 601.657,525.526 601.756,525.931 600.34,526.185 		"/>
		<path fill="#2E8842" d="M602.412,525.073l6.16-2.929l-0.353,2.223c-1.969,0.051-3.537,0.404-4.696,1.008l-1.111,0.354V525.073"/>
		<path fill="#2E8842" d="M609.584,521.839c2.22-0.655,4.188-0.655,5.904,0l-1.311,3.739c-1.362-0.659-3.077-1.061-5.049-1.211
			L609.584,521.839"/>
		<path fill="#2E8842" d="M618.317,528.912c-1.009-1.365-2.12-2.374-3.331-2.981l1.414-3.684l0.96,0.504
			c1.259,0.807,2.422,2.274,3.533,4.391L618.317,528.912"/>
		<polyline fill="#2E8842" points="625.236,549.26 625.538,553.705 624.427,549.664 625.236,549.26 		"/>
		<polyline fill="#2E8842" points="624.125,548.804 623.116,544.262 624.832,543.806 625.188,548.199 624.125,548.804 		"/>
		<path fill="#2E8842" d="M622.862,543.201l-1.262-6.012l2.12-1.564l0.103,0.609c0.35,1.716,0.652,3.936,0.857,6.613
			L622.862,543.201"/>
		<path fill="#2E8842" d="M621.247,527.951c0.958,2.072,1.718,4.291,2.223,6.565l-2.068,1.462c-0.659-2.625-1.516-4.796-2.627-6.463
			L621.247,527.951"/>
		<path fill="#2E8842" d="M507.286,570.111c0.302-4.695,0.803-8.531,1.564-11.56c0.809-3.331,1.869-6.414,3.183-9.289
			c0.906-1.87,1.815-3.386,2.676-4.545c0.556-0.86,3.533-2.676,8.939-5.505c5.451-2.927,8.938-4.543,10.497-4.796
			c1.163-0.206,4.597-0.254,10.355-0.151l18.074,0.303l16.259-0.656c4.294-0.504,7.93-1.364,10.962-2.527
			c1.818-0.758,4.593-2.071,8.377-4.037l5.454-0.707c1.92-0.707,3.636-1.009,5.203-0.909c1.712,0,3.482,0.508,5.348,1.465
			c3.135,1.767,5.206,5.604,6.161,11.611c1.012,5.554,1.923,9.595,2.778,12.118c1.163,3.688,2.675,6.565,4.596,8.635
			c-0.556-1.564-0.81-4.09-0.81-7.525l-0.103-9.842c4.191,9.138,7.073,15.7,8.637,19.74l5.656,14.743
			c1.87,6.215,2.171,11.614,0.909,16.211c-1.063,4.037-3.385,8.331-7.018,12.825c-2.377,2.978-6.565,7.423-12.678,13.43
			c-1.969,1.969-3.331,3.938-4.191,5.955l1.721-1.414l2.525-2.068l-0.154,4.898l0.958,5.303c0.404,1.667,1.268,4.141,2.627,7.423
			l4.445,10.4l4.748,10.555c1.866,4.089,2.923,6.359,3.077,6.915c0.202,2.374-2.528,6.819-8.175,13.333
			c-3.992,4.49-8.335,8.583-13.082,12.267c-6.411,5.001-12.726,8.435-18.835,10.403l-5.451,1.413l-2.02-7.772l-0.402-5.001
			l-0.154-5.149c-0.148-1.262-0.709-3.484-1.667-6.665l-2.521-9.09c-0.453-2.171-1.262-5.354-2.425-9.442l-1.362-5.808l0.501-6.967
			l0.456-5.91c0-0.957-0.251-1.914-0.758-2.874l2.727-1.667c4.092-2.576,8.435-5.605,12.928-9.139l8.03-6.514
			c2.473-1.866,4.895-3.484,7.217-4.847l4.14-2.374c-1.969,0.354-3.787,0.957-5.351,1.716c-1.664,0.857-3.89,2.223-6.613,4.089
			l-8.939,6.922l-12.122,8.527c-4.844,3.032-9.64,5.406-14.438,7.072c-4.442,1.564-8.38,2.271-11.817,2.223
			c-4.291-0.103-9.087-1.063-14.284-2.829c-5.611-1.972-10.757-4.696-15.507-8.181c-4.593-3.383-8.277-7.118-11.158-11.21
			c-2.477-3.633-3.986-7.019-4.494-10.198c-0.453-2.373-0.35-4.998,0.302-7.827c0.556-2.573,1.365-4.744,2.525-6.614l0.658,0.354
			c0.504,0.203,1.111-0.25,1.866-1.313l0.154,1.616l0.755,2.775l-1.414,2.527c-0.556,1.262-0.857,2.524-0.909,3.787l0.405,1.917
			c-0.103,3.839,0.906,7.121,3.029,9.848c3.687,4.747,9.289,9.139,16.715,13.228c4.596,2.477,8.229,4.191,11.004,5.049
			c3.587,1.263,7.372,1.872,11.313,1.818c4.497-0.049,8.987-0.857,13.48-2.422c5.001-1.767,11.107-4.851,18.228-9.193
			c4.85-3.025,10.099-6.963,15.703-11.861c3.685-3.08,6.97-6.212,9.948-9.341l0.556,1.616c0.556,1.413,1.667,2.37,3.382,2.923
			l5.149-0.251c2.576-1.159,4.898-3.08,6.918-5.652c2.422-3.181,4.141-7.021,5.149-11.563c1.063-4.898,0.963-9.392-0.401-13.583
			c-1.163-3.99-2.929-6.313-5.254-6.916c-2.474-0.658-4.995,0.1-7.52,2.168c-3.081,2.576-5.406,6.665-6.867,12.27
			c-0.861,3.132-1.465,6.161-1.718,9.139c-5.3,4.494-10.401,8.184-15.302,11.11l-5.194,2.878l-4.904,2.273
			c-5.297,2.018-12.267,3.986-20.903,5.904c-3.077,0.709-6.058,0.758-8.939,0.103c-4.895-1.06-9.845-2.98-14.891-5.858
			c-4.799-2.827-10.047-6.665-15.707-11.563c-6.312-5.502-11.917-11.158-16.712-17.014c-3.739-4.497-5.708-7.272-5.958-8.332
			C506.984,576.522,507.032,574.101,507.286,570.111"/>
		<path fill="#2E8842" d="M632.556,596.974c-0.453,1.464-0.96,2.679-1.567,3.636c-0.601,1.111-1.157,1.615-1.664,1.516
			c-0.35-0.051-0.556-0.755-0.556-2.071l0.556-4.092c0.408-1.562,0.909-2.827,1.516-3.884c0.604-0.961,1.111-1.365,1.465-1.263
			c0.353,0.097,0.604,0.807,0.704,2.069C633.112,594.35,632.961,595.711,632.556,596.974"/>
		<path fill="#2E8842" d="M630.186,590.662l-1.211,1.92c-0.861-1.566-2.374-2.727-4.445-3.385l-5.152-0.151
			c1.365-5.2,3.536-8.987,6.462-11.409c2.73,0.707,4.394,2.322,5.049,4.898c0.302,1.311,0.356,2.824,0.103,4.494L630.186,590.662"/>
		<path fill="#2E8842" d="M629.778,578.543c-0.857-0.755-1.866-1.262-3.026-1.564c1.564-1.06,3.026-1.461,4.288-1.211
			c1.414,0.305,2.576,1.514,3.54,3.588c0.954,2.068,1.461,4.542,1.612,7.522c-0.507,1.159-1.262,2.521-2.322,4.089
			c-0.305-1.009-0.655-1.567-1.108-1.615l-1.015,0.048c0.658-2.521,0.761-4.998,0.202-7.371
			C631.547,580.666,630.841,579.504,629.778,578.543"/>
		<path fill="#2E8842" d="M634.121,592.027c0.864-0.961,1.564-1.97,2.12-3.132c-0.048,2.021-0.253,4.04-0.652,6.009
			c-0.356,1.667-0.707,3.029-1.166,4.09l-1.105-0.807l0.248-0.961C634.175,595.357,634.374,593.591,634.121,592.027"/>
		<path fill="#2E8842" d="M632.91,599.147l1.114,0.906c-0.96,2.374-2.223,4.442-3.79,6.314c-0.501-0.658-0.402-1.718,0.253-3.282
			C631.445,602.33,632.254,601.014,632.91,599.147"/>
		<path fill="#2E8842" d="M629.428,603.689c-0.707,1.262-0.659,2.373,0.199,3.331c-1.564,1.564-3.18,2.778-4.795,3.639
			c-1.414,0.652-2.673,0.857-3.736,0.604c-1.06-0.251-1.869-0.909-2.371-2.021c0.151-1.16,0.55-2.374,1.259-3.685
			c0.758-1.465,1.564-2.576,2.425-3.385c1.462-1.414,3.129-2.419,4.995-3.078l0.308,3.181c0.248,0.857,0.604,1.313,1.057,1.413
			H629.428"/>
		<path fill="#2E8842" d="M624.073,590.309c2.171,0.758,3.688,1.818,4.545,3.282l-0.61,1.97l-0.501,2.624
			c-2.271,0.504-4.24,1.57-5.907,3.186c-0.858,0.804-1.564,1.764-2.223,2.927l-1.262,3.18c-0.453-1.969-0.607-4.391-0.504-7.27
			c0.1-3.282,0.607-6.664,1.461-10.047L624.073,590.309"/>
		<path fill="#2E8842" d="M637.657,672.512c1.362-2.473,2.069-4.394,2.123-5.662l-0.103-1.008l1.715-0.052l3.437,3.282l5.197,4.594
			l7.982,6.312c3.479,2.627,6.813,4.85,9.941,6.616l4.294,1.564l4.497,0.857l-3.941-2.171c5.907,0.103,15.199-1.413,27.973-4.494
			l19.843-4.291l21.562-1.214c12.266,0.658,24.036,4.494,35.393,11.412c5.453,3.285,10.304,7.069,14.543,11.36l-3.128,0.61
			c-5.91,1.462-12.017,4.744-18.331,9.893c-6.716,5.454-12.013,11.766-15.803,18.986c-2.172,3.941-4.647,9.543-7.522,16.764
			l-7.172,19.287c-0.96,2.83-2.422,5.91-4.342,9.293l-5.149,8.434l-2.978,4.292l-2.932,3.938c-2.727,1.564-5.098,3.481-7.167,5.656
			c-2.277,2.319-3.89,4.692-4.85,7.169c-1.465,3.89-1.818,8.888-0.96,14.945l-2.322-1.259l-0.302-1.163
			c-0.052-0.456-0.251-0.86-0.607-1.111l-5.858-3.787c-3.077-2.017-4.946-3.18-5.702-3.481l-4.246-1.313l-4.847-1.67l-4.693-3.178
			l-6.164-4.342c-2.065-1.362-4.795-2.98-8.178-4.747c-3.128-1.564-5.804-2.827-8.03-3.787l-7.166-3.032l-6.517-3.533l-12.52-9.643
			l-0.048-2.168c3.279-4.294,5.955-8.283,8.027-11.92l1.715-3.783c1.057-0.203,2.627-1.061,4.645-2.579
			c0.96-0.807,1.92-1.918,2.926-3.38c0.86-1.364,1.519-2.678,1.869-3.841c-1.16,1.77-3.08,3.89-5.756,6.363
			c-1.057,1.012-2.12,1.667-3.18,1.972c0.504-1.567,0.758-2.727,0.758-3.584c0.151-2.172-0.405-4.093-1.564-5.656
			c-1.214-1.564-2.679-2.371-4.343-2.477c-1.57-0.052-3.183,0.658-4.85,2.018c-1.715,1.364-3.584,3.741-5.554,7.021l-0.504-5.3
			v-8.181l-0.912,3.636l-0.453,4.796c0,2.878,0.305,5.049,0.96,6.514l-5.4,9.745l-3.738-4.141l-2.676-3.282l-2.875-2.22
			c-2.379-1.567-4.294-3.231-5.81-5.101l-4.693-6.613l-3.639-5.805l-4.189-5.104c-1.619-1.966-2.675-3.584-3.183-4.744
			c-1.009-2.679-1.667-5.807-2.021-9.494c-0.356-3.08-0.408-6.007-0.148-8.686c2.573-0.353,5.351-0.96,8.28-1.917
			c6.312-2.068,12.774-5.554,19.339-10.504c5.046-3.783,9.489-7.927,13.375-12.42C633.818,678.775,636.041,675.593,637.657,672.512"
			/>
		<path fill="#2E8842" d="M837.557,781.88c3.129-4.796,5.506-9.748,7.121-14.846c0.655,3.587,0.758,7.827,0.404,12.623
			c-0.609,6.16-2.071,12.275-4.342,18.33c-2.628,6.819-6.363,13.837-11.159,20.955c-4.194,6.209-7.931,10.757-11.213,13.635
			c-2.168,0.453-6.665,1.716-13.48,3.835c-2.477-2.219-5.351-4.34-8.634-6.312c-2.624-1.563-4.343-2.875-5.101-3.938
			c-0.351-0.401,0.254-1.918,1.921-4.548c1.914-3.077,4.188-5.753,6.764-8.078c1.564-1.362,5.654-4.089,12.273-8.281
			c6.411-4.088,11.561-7.875,15.395-11.36C831.396,790.263,834.73,786.273,837.557,781.88"/>
		<path fill="#2E8842" d="M846.9,778.093c0.254-5.804-0.205-10.452-1.414-14.036l1.058-5.454v-0.052
			c5.961,4.191,11.663,7.623,17.119,10.4c8.229,4.295,16.612,7.424,25.146,9.393c8.175,1.917,17.015,3.028,26.457,3.282
			c11.31,0.251,20.798-0.81,28.478-3.231c12.977-4.191,24.337-10.198,34.182-17.977c8.736-7.019,15.854-15.148,21.26-24.338
			c0.857-1.564,1.667-2.524,2.326-2.978l2.064-0.153c1.263,0.709,1.619,2.777,1.01,6.263c-1.664,10.806-6.059,21.208-13.076,31.153
			c-9.543,13.531-23.682,25.701-42.414,36.455c-16.359,9.446-36.912,16.664-61.702,21.713c-16.104,3.283-31.507,4.898-46.304,4.898
			l-20.752-1.111c3.388-2.926,7.168-7.32,11.264-13.13c4.795-6.916,8.479-13.731,11.008-20.548
			C845.131,792.026,846.544,785.211,846.9,778.093"/>
		<path fill="#111214" d="M782.215,954.311c2.126,0.151,3.789,1.263,5.055,3.231c1.16,1.921,1.462,3.89,0.957,5.858
			c-0.355,1.362-1.162,2.93-2.527,4.696l-2.978,3.434c-1.06,1.214-2.374,1.413-3.938,0.658c-1.159-0.556-2.223-1.718-3.181-3.585
			c-1.111-2.174-1.519-4.548-1.213-7.12c0.305-2.377,1.162-4.194,2.627-5.454C778.428,954.767,780.148,954.16,782.215,954.311"/>
		<path fill="#111214" d="M733.794,977.084c-0.909-2.83-1.413-5.554-1.564-8.182c-0.151-3.481,0.354-7.117,1.564-11.007
			c1.263-4.188,3.08-7.824,5.502-10.806c1.969-2.523,3.636-3.886,4.898-4.092c0.81-0.096,2.223,0.658,4.24,2.223
			c2.778,2.072,5.001,4.799,6.716,8.284c1.77,3.684,2.679,6.915,2.73,9.745c0,1.917-0.306,3.177-0.912,3.787
			c-0.553,0.555-2.066,1.311-4.645,2.318l-5.956,2.377c-3.134,1.562-6.164,3.383-9.09,5.554c-0.809,0.556-1.516,0.857-2.071,0.905
			C734.501,978.191,734.045,977.842,733.794,977.084"/>
		<path fill="#111214" d="M722.234,954.564c1.111-1.214,2.069-1.866,2.821-1.969c0.356-0.049,1.262,0.758,2.63,2.322
			c1.458,1.667,2.576,3.231,3.331,4.695c-0.655,2.879-0.909,5.907-0.857,9.139c-2.274,0.559-4.24,1.313-5.958,2.325l-6.768,4.288
			l-1.208,0.356c-0.356-0.052-0.507-0.254-0.507-0.71c-0.199-1.866-0.151-3.681,0.151-5.499c0.305-1.972,0.96-4.346,1.972-7.22
			C719.051,959.01,720.516,956.434,722.234,954.564"/>
		<path fill="#2E8842" d="M812.866,704.323c8.332,2.22,14.846,5.853,19.647,10.956c4.645,4.998,8.075,11.615,10.249,19.847
			c2.071,7.824,2.628,15.55,1.564,23.123c-1.667,11.36-8.13,22.52-19.442,33.479c-2.977,2.826-7.471,6.209-13.583,10.198
			c-6.359,4.089-10.651,7.172-12.874,9.189c-2.473,2.271-4.9,5.251-7.172,8.887c-2.219,3.482-3.129,5.506-2.672,6.158
			c1.361,1.969,3.481,3.992,6.41,6.01l7.979,6.108c2.827,2.73,5.406,6.164,7.726,10.253c2.373,4.24,3.938,8.229,4.596,11.916
			c0.96,4.796,1.411,10.452,1.359,17.018l0.205,11.56c0.254,1.468,0.755,2.729,1.413,3.79l1.818,2.473l-0.909-6.058
			c1.06,0.202,2.069,0.655,2.978,1.362c1.162,0.96,2.425,2.322,3.688,4.089c1.715,2.325,3.08,4.898,4.037,7.779
			c1.266,3.331,1.967,6.511,2.22,9.543c0.254,2.621,0.103,4.343-0.452,5.2l-1.414-0.205c-1.208-0.704-2.119-1.111-2.727-1.263
			l-3.434-0.148l1.872-2.781c-1.77,0.909-3.437,2.325-4.898,4.192c-1.972,2.424-3.337,5.351-4.095,8.836
			c-0.906,3.889-1.262,7.875-1.057,12.066l0.453,5.708l-4.898,7.522c-1.866,2.676-3.836,4.799-5.808,6.463
			c-3.028,2.576-6.257,4.847-9.69,6.716c-3.135,1.719-5.659,2.778-7.629,3.18c0.858-1.361,1.414-2.772,1.668-4.188
			c0.453-2.37-0.049-4.645-1.517-6.915c-1.612-2.377-3.685-3.64-6.263-3.787c-2.519-0.202-4.741,0.401-6.611,1.815
			c-2.068,1.516-3.33,3.684-3.687,6.465c-0.248,2.172,0,4.442,0.863,6.816l-6.619,0.555l-6.408-0.153
			c0.755-1.465,0.857-3.685,0.302-6.613c-0.609-2.927-1.824-6.212-3.639-9.896c-1.767-3.636-4.037-6.312-6.919-8.03
			c-2.068-1.262-3.938-1.817-5.602-1.715c-1.365,0.103-2.978,1.012-4.85,2.676c-2.172,1.972-3.986,4.545-5.5,7.625
			c0-1.365,0.302-3.183,0.958-5.402l1.567-4.041c-1.266,0.857-2.223,2.426-2.881,4.799c-0.652,2.271-0.755,4.391-0.35,6.463
			l-1.063,2.826l-0.051,0.354c-0.854-1.818-2.069-3.434-3.536-4.847c-1.359-1.111-2.319-1.664-2.875-1.664
			c-0.758,0-1.613,0.299-2.676,0.957c0.556-2.881,1.77-5.808,3.636-8.733c1.818-3.029,4.494-5.505,7.979-7.423l1.764-0.912
			l-1.262,3.941l1.772-1.97l1.815-2.273l12.472-13.127l7.574-6.614l6.765-4.949l4.847-3.485c-1.464,0.151-2.727,0.453-3.687,0.909
			c-0.254-1.012-0.351-2.171-0.254-3.434l0.912-2.729l1.162-2.271l-1.918,1.063l-3.285-7.221l-4.59-9.646l-6.617-12.372
			c-2.373-4.288-4.747-7.973-7.069-11.155c-1.461-1.969-3.587-4.392-6.263-7.272l-4.898-5.602l2.833,0.299
			c-3.032-1.564-6.061-3.585-9.138-6.16c-4.297-3.636-7.375-7.472-9.346-11.461c-1.918-4.191-3.129-8.28-3.633-12.372
			c-0.456-4.089-0.205-7.776,0.755-11.056c0.758-2.322,2.174-4.647,4.294-7.021c1.866-2.12,3.986-3.887,6.36-5.251
			c2.525-1.562,4.847-2.778,6.916-3.637l6.312-1.715l-4.342-0.151c-1.918,0.202-3.884,0.704-5.904,1.564l3.787-5.148l4.696-7.423
			c2.322-3.938,4.089-7.375,5.249-10.353l6.867-17.62c3.584-8.734,6.359-14.795,8.332-18.178
			c7.725-13.078,18.376-21.813,31.962-26.306C796.508,702.101,804.283,702.101,812.866,704.323"/>
		<path fill="#111214" d="M607.917,930.681c-2.12,0.051-4.092,0.353-5.958,1.012c-1.513,0.504-3.382,1.413-5.653,2.673
			c-1.567,0.86-2.524,1.162-2.827,0.908c-0.857-0.703-0.809-2.621,0.151-5.704c0.906-2.823,2.168-5.554,3.784-8.178
			c1.718-2.881,3.838-4.95,6.363-6.212c2.02-0.957,3.684-1.263,5.049-0.857c0.604,0.202,1.262,0.908,2.02,2.071
			c0.958,1.664,1.564,3.633,1.718,6.007c0.251,3.636-0.404,6.314-1.872,8.029L607.917,930.681"/>
		<path fill="#111214" d="M581.659,889.227c1.266,0.505,2.428,1.564,3.437,3.231c1.462,2.374,2.322,5.656,2.525,9.848
			c0.145,3.533-0.507,6.813-1.873,9.896c-0.954,2.068-2.168,3.886-3.633,5.454c-0.456,0.453-1.163,0.453-2.223,0
			c-2.727-1.266-5.753-2.023-9.141-2.223l-7.975,0.504l-5.3,0.909c-0.556,0.1-0.963-0.151-1.316-0.759
			c-0.248-0.555-0.302-1.211-0.248-2.02c0.1-1.263,0.803-3.08,2.114-5.502c1.721-3.08,4.046-6.261,6.97-9.595
			c3.584-3.989,7.172-6.815,10.859-8.482C578.579,889.326,580.5,888.877,581.659,889.227"/>
		<path fill="#111214" d="M549.449,908.816l-0.154-0.908c0.607-2.728,2.322-5.959,5.2-9.749c1.87-2.319,3.736-4.089,5.605-5.351
			c1.567-1.057,2.576-1.462,2.98-1.211c0.704,0.404,1.111,1.111,1.259,2.123l-0.148,2.826c-3.587,3.838-6.414,7.677-8.486,11.515
			l-5.2,1.058C550.054,909.17,549.697,909.07,549.449,908.816"/>
		<path fill="#2E8842" d="M632,815.155l-2.283-9.542c9.446,5.857,18.838,12.52,28.179,19.942
			c12.167,9.643,23.582,16.413,34.284,20.3c-0.253,2.978-1.111,6.26-2.573,9.842c-1.77,4.394-4.092,8.488-6.867,12.272l-2.881,3.434
			l-2.47,3.231l2.827-1.918c-1.77,3.078-3.029,5.653-3.787,7.723l-2.524,7.827c-0.755,3.032-0.707,5.049,0.048,6.009l1.564-4.949
			c1.063,2.576,1.063,6.867,0.106,12.877c-1.012,6.209-3.083,10.603-6.212,13.23l-0.707-0.104c-0.206-3.18-1.208-5.502-3.081-6.918
			l3.081-0.707l-4.796-0.401l-6.662,1.516c-2.428,0.958-5.158,2.474-8.135,4.545c-3.582,2.522-6.563,6.109-8.885,10.706
			l-2.929,6.157l-5.2,1.869l-7.673,2.524l-6.665,1.009l-5.505-0.1c-3.18-0.559-5.354-1.416-6.514-2.576l3.135-0.404
			c1.057-0.151,1.812-0.405,2.319-0.758c0.96-0.704,1.77-1.966,2.374-3.735c0.761-2.12,0.96-4.439,0.607-6.916
			c-0.354-2.174-1.012-3.989-2.072-5.405c-0.806-1.111-1.715-1.918-2.672-2.371c-1.365-0.658-3.183-0.658-5.508,0
			c-3.177,0.861-5.955,2.878-8.277,6.161c-1.163,1.715-2.271,3.935-3.283,6.664l-3.533-2.729c-0.858-0.909-2.477-1.564-4.85-2.018
			c-1.262-0.302-2.422-0.758-3.485-1.413c1.214,0.151,2.174-0.103,2.881-0.755c1.664-1.67,3.078-3.738,4.24-6.163
			c1.564-3.482,2.271-7.27,2.223-11.461c-0.051-4.394-1.166-7.927-3.437-10.555c-1.413-1.767-2.929-2.777-4.493-3.131l-4.995,0.404
			c-2.627,0.655-5.254,1.918-7.828,3.838c0.604-1.465,1.564-2.929,2.827-4.294c1.16-1.311,2.525-2.422,4.089-3.279
			c1.365-0.759,2.477-1.214,3.437-1.365l-3.485,0.456c-1.77,0.604-3.533,1.767-5.2,3.434c-1.667,1.767-2.929,3.986-3.738,6.61
			l-1.211,1.114c0.051-0.857,0.051-1.618-0.051-2.271c-0.2-1.417-0.707-2.329-1.564-2.781l-1.111-0.052
			c1.163-2.068,2.929-3.887,5.405-5.499c2.724-1.869,5.502-2.679,8.329-2.477c1.262,0.052,2.374-0.302,3.382-0.957
			c4.798-3.234,11.868-5.405,21.109-6.565l18.53-0.908l6.771,0.555c-0.71-0.504-1.873-0.96-3.437-1.413
			c3.835-5.405,5.858-8.788,6.058-10.05c0.254-1.767,0.356-5.049,0.206-9.845l-0.206-15.957l0.556-24.64l1.063,1.668L632,815.155"/>
		<path fill="#E2ECC1" d="M593.627,780.467c-1.313-1.111-2.727-2.628-4.291-4.6l-3.787-5.551c1.616-0.354,3.382-0.96,5.357-1.818
			l2.875-1.162c0.404-0.049,4.342,1.468,11.765,4.545c8.027,3.385,13.426,5.352,16.156,5.91l4.24,0.15
			c1.365-0.25,2.727-0.963,3.989-2.068l3.283-3.639c-0.051,2.071-0.658,4.143-1.92,6.16c1.567-0.755,2.627-2.223,3.128-4.394
			l6.215,5.151l5.804,4.594c1.969,1.365,6.668,3.536,13.988,6.613c2.274,0.963,4.898,2.223,7.979,3.838
			c3.434,1.768,6.16,3.383,8.229,4.748l5.91,4.291l4.439,3.129l5.049,1.718l4.548,1.263c0.755,0.355,2.573,1.465,5.502,3.434
			l5.502,3.687c0.356,0.2,0.556,0.604,0.61,1.214l0.35,1.209l3.431,1.416c0.71,3.787,1.873,7.221,3.485,10.301
			c3.793,7.169,8.486,11.965,14.091,14.44l1.613,2.524l-16.507-0.706c-7.779-0.71-13.888-1.77-18.382-3.231
			c-10.554-3.385-22.471-10.455-35.746-21.209c-10.962-8.736-23.736-17.168-38.229-25.297l-16.911-9.443
			C598.776,783.896,594.838,781.523,593.627,780.467"/>
		<path fill="#E2ECC1" d="M580.548,761.834l-3.485-6.061l1.465,0.153c1.513,0.151,2.878,0.604,4.092,1.263
			c1.111,0.556,1.715,1.06,1.869,1.413c0.251,0.655-0.1,1.313-1.111,1.866L580.548,761.834"/>
		<path fill="#2E8842" d="M571.156,754.109c-0.556,0.051-0.803-0.055-0.803-0.299c0-0.354,0.248-0.756,0.752-1.111
			c1.567-1.514,4.038-2.426,7.423-2.676l5.656,0.354l3.128,0.809l1.516-0.202c0.356-0.354,0.556-0.86,0.556-1.516
			c-0.151-1.716-0.858-3.231-2.223-4.545c-1.16-1.163-2.627-1.918-4.391-2.374l-0.809-0.807c0.048-0.407,0.353-0.555,0.909-0.504
			c1.664,0,3.286,0.351,4.847,1.108c1.869,0.96,3.485,2.425,4.898,4.445c0.96,1.462,1.921,3.685,2.83,6.613l1.162,4.24
			c0.556,0.857,4.898,2.524,13.127,5.049l11.261,3.735c-0.658,1.667-0.912,2.676-0.658,2.978l1.866-3.18l8.03-13.027l4.85-7.069
			c1.664-1.969,3.18-2.927,4.593-2.827c1.211,0.052,2.223,0.604,2.978,1.716c0.809,1.162,1.16,2.676,1.063,4.445
			c-0.206,2.171-1.063,4.695-2.627,7.673c-1.365,2.477-3.334,5.454-5.804,8.839c-2.524,3.479-4.85,6.313-6.921,8.483
			c-1.715,1.866-3.89,2.319-6.459,1.362l-15.453-6.113c-7.725-3.028-11.917-4.541-12.575-4.541c-0.399,0-1.51,0.404-3.382,1.262
			c-2.12,1.009-4.137,1.667-6.003,2.018l-5.811,0.508l-3.485-0.453c-0.755-0.203-1.16-0.508-1.262-0.861
			c-0.148-0.404,0.103-0.857,0.761-1.361c0.453-0.356,2.168-1.163,5.046-2.426l4.747-2.273l1.259-1.465
			c0.308-0.606,0.308-1.262,0-1.918c-0.302-0.758-1.008-1.513-2.168-2.171c-1.262-0.758-2.83-1.313-4.645-1.718L571.156,754.109"/>
		<path fill="#E2ECC1" d="M588.829,707.099c-0.25,2.778-0.25,5.756,0.003,8.987c0.25,3.986,0.909,7.217,1.917,9.793
			c0.456,1.215,1.516,2.781,3.183,4.748l4.24,5.251l3.739,5.656l4.844,6.613c1.465,1.815,3.382,3.482,5.656,5.046l2.878,2.223
			l3.183,3.787l3.732,4.497l-0.655,1.413c-3.129-1.567-6.864-2.98-11.258-4.343l-11.967-3.989l-1.16-3.986
			c-0.758-2.983-1.718-5.254-2.826-6.921c-1.972-2.724-3.89-4.542-5.811-5.499c-1.667-0.762-3.533-1.063-5.656-0.813
			c-1.008,0.154-1.712,0.709-2.065,1.567c-0.356,0.96,0,1.715,1.108,2.322c1.818,0.96,3.131,1.817,3.989,2.675
			c1.111,0.961,1.815,2.123,2.068,3.438c0.055,0.354,0.055,0.501-0.048,0.553l-0.758-0.251c-2.878-1.163-5.807-1.667-8.785-1.519
			c-1.564,0.054-3.129,0.407-4.593,1.065l-3.029-7.019c-1.266-2.777-2.83-5.759-4.699-8.99l-6.312-10.249l-5.152-8.582
			c-1.564-2.728-2.929-6.112-4.089-10.201c-1.057-3.485-1.619-6.212-1.715-8.081c0-0.909,0.302-1.768,0.96-2.625l0.302,1.869
			l5.604,4.392c3.582,2.476,6.765,4.144,9.646,5.001C573.279,707.35,581.104,708.056,588.829,707.099"/>
		<path fill="#2E8842" d="M512.888,728.561c0.861-1.365,0.813-3.234-0.147-5.508c-1.16-2.524-2.627-4.291-4.397-5.354
			c-0.601-0.353-0.81-0.652-0.556-0.905l1.365-0.1c3.334,0.854,6.565,3.128,9.745,6.815l7.522,8.936
			c0.562,0.607,1.869,1.567,3.992,2.878l7.574,4.395l5.303,2.675c1.461,0.858,2.772,1.818,3.89,2.978
			c0.552,0.607,0.906,1.365,1.108,2.223l0.354,2.12l0.302-2.017c0.048-0.912-0.055-1.719-0.203-2.374
			c2.268-0.707,5.052-1.972,8.38-3.787c2.579-1.413,5.152-3.128,7.673-5.151c2.325,3.988,4.297,7.725,5.861,11.158
			c-2.83,1.564-6.97,3.131-12.472,4.747l-9.44,2.223l-5.961,0.151c-1.414-0.357-3.18-1.465-5.351-3.334l-6.264-5.503
			c-4.49-3.685-7.827-6.058-9.893-7.218l-3.485-0.054c-3.787,2.425-6.716,3.685-8.89,3.79l-5.551-0.912
			c-2.072-0.553-3.735-1.208-5.001-2.018l-0.61-0.807c0.103-0.201,0.459-0.305,1.015-0.305l5.098,0.151l2.98,0.103l-1.313-0.607
			l1.77-0.96l1.613-1.564c0.761-0.957,1.111-2.373,1.008-4.239l-1.057,2.219c-0.858-0.703-2.374-1.259-4.548-1.715l-3.026-0.453
			l-3.889-0.809c-1.468-0.405-2.47-0.861-3.026-1.414c-0.556-0.407-0.71-0.807-0.556-1.162c0.248-0.505,1.564-0.861,3.932-1.009
			l6.112-0.202l8.891,0.504L512.888,728.561"/>
		<path fill="#326A35" d="M836.295,744.617c0.452-0.863,0.857-2.477,1.111-4.753c0.253-2.37,0.201-4.086-0.151-5.046
			c-0.405-1.163-1.564-2.374-3.434-3.637c-1.815-1.162-3.132-1.666-3.941-1.563c-0.452,0.051-1.057,1.06-1.866,3.132
			c-0.755,2.017-1.008,3.33-0.857,3.938c0.15,0.658,0.857,2.018,2.223,3.989c1.413,2.171,2.724,3.687,3.935,4.545l1.471,0.655
			L836.295,744.617"/>
		<path fill="#B4D446" d="M836.191,735.174c0.305,0.91,0.356,2.374,0.104,4.395c-0.251,1.969-0.604,3.331-1.058,4.086l-0.61,0.813
			l-0.957-0.508l-3.18-3.684l-2.072-3.537l0.656-3.128c0.553-1.616,1.012-2.474,1.416-2.576c0.501-0.052,1.465,0.354,2.878,1.263
			C834.933,733.254,835.842,734.211,836.191,735.174"/>
		<path fill="#326A35" d="M826.752,726.791c0.1-1.667,0-2.727-0.354-3.279c-0.402-0.607-1.163-1.162-2.22-1.719
			c-1.159-0.553-2.071-0.755-2.778-0.504c-0.456,0.15-0.81,0.906-1.063,2.322c-0.251,1.311-0.199,2.271,0.102,2.878
			c0.357,0.807,1.16,1.616,2.477,2.474c1.311,0.857,2.223,1.111,2.725,0.857C826.244,729.519,826.601,728.51,826.752,726.791"/>
		<path fill="#B4D446" d="M825.641,724.115c0.205,0.354,0.254,1.111,0.15,2.326c0,1.207-0.199,1.914-0.652,2.119
			c-0.308,0.151-0.96-0.051-1.972-0.709l-1.815-1.815l-0.15-1.921c0.097-1.008,0.299-1.566,0.652-1.718l2.071,0.453
			C824.831,723.255,825.387,723.66,825.641,724.115"/>
		<path fill="#326A35" d="M813.168,734.012c-0.96,0.961-1.413,1.866-1.361,2.727c0.147,1.314,1.311,2.879,3.584,4.645l6.916,6.971
			c0.507,0.504,1.063,0.809,1.721,0.96l1.764-0.302c1.061-0.658,1.969-1.52,2.676-2.579c0.758-1.111,1.16-2.22,1.211-3.28
			c0.049-0.96-0.655-2.174-2.021-3.636l-2.826-2.778l-1.564-0.153h-1.365l-2.724-2.22c-1.162-0.961-2.223-1.462-3.132-1.615
			C814.986,732.599,814.025,733.003,813.168,734.012"/>
		<path fill="#B4D446" d="M816.352,740.677l-2.32-1.972c-0.758-0.652-1.111-1.311-1.111-1.967c-0.054-0.758,0.354-1.413,1.111-1.972
			c0.756-0.556,1.463-0.806,2.223-0.755c0.604,0.051,1.408,0.456,2.471,1.266l2.627,2.219l1.716,0.303h1.163l2.675,2.524
			c1.157,1.263,1.719,2.322,1.564,3.282c-0.305,1.821-1.313,3.28-3.028,4.395c-0.81,0.453-1.568,0.354-2.322-0.404
			C819.733,743.908,817.511,741.637,816.352,740.677"/>
		<path fill="#326A35" d="M816.858,747.39c-0.658,1.67-1.468,3.231-2.428,4.6l-1.667,3.125l-0.453,1.824l2.524,3.026l5.001,5.704
			l4.693,5.457l3.031,3.18c0.303,0.199,0.909-0.556,1.867-2.271c1.063-1.973,1.516-3.839,1.412-5.605
			c-0.25-3.282-1.364-6.111-3.334-8.534l-0.754-2.473c-0.248-1.362-0.508-2.274-0.756-2.628l-3.08-3.23l-3.282-2.374
			c-0.606-0.453-1.163-0.655-1.718-0.606C817.359,746.635,817.004,746.886,816.858,747.39"/>
		<path fill="#B4D446" d="M813.978,755.269c0.199-0.857,0.604-1.718,1.259-2.579c0.861-1.259,1.622-2.624,2.223-4.089
			c0.402-0.905,1.111-1.009,2.072-0.253c2.679,1.872,4.593,3.689,5.656,5.456c0.15,0.254,0.35,1.012,0.553,2.374l0.504,2.171
			c0.961,1.16,1.719,2.223,2.174,3.077c0.858,1.52,1.263,3.132,1.263,4.85c0,1.568-0.353,3.081-1.063,4.494
			c-0.654,1.111-1.111,1.615-1.358,1.465l-6.921-7.879l-6.463-7.873L813.978,755.269"/>
		<path fill="#162919" d="M744.146,791.728l-5.502-0.456c4.342,0.906,7.828,2.576,10.449,4.998c1.365,1.262,2.829,2.826,4.394,4.695
			l2.775,3.787c-0.854-3.029-2.978-6.157-6.36-9.443C748.235,793.643,746.314,792.432,744.146,791.728"/>
		<path fill="#162919" d="M742.784,808.588c-1.664-3.582-4.346-6.158-8.132-7.623c-4.391-1.767-8.178-1.664-11.258,0.356
			l4.343-0.507c2.476,0,4.699,0.456,6.665,1.313c1.966,0.96,3.736,2.117,5.403,3.485L742.784,808.588"/>
		<path fill="#162919" d="M731.42,811.722c-1.564-1.162-3.485-1.718-5.756-1.615c1.969,0.652,3.739,1.51,5.303,2.573
			c1.414,1.111,2.727,2.422,3.989,3.938l-1.163-2.374C733.19,813.283,732.381,812.477,731.42,811.722"/>
		<path fill="#162919" d="M735.208,819.094c-0.251-0.707-0.707-1.316-1.262-1.77c-0.607-0.453-1.311-0.756-2.12-0.906l1.513,1.211
			L735.208,819.094"/>
		<path fill="#162919" d="M744.696,827.878c-1.709,2.374-3.932,4.494-6.662,6.312c1.163-0.202,2.325-0.706,3.533-1.461
			c1.467-1.012,2.781-2.328,3.992-3.89c1.108-1.567,1.969-3.331,2.576-5.2c0.553-1.77,0.655-2.979,0.354-3.64
			C747.933,822.476,746.668,825.1,744.696,827.878"/>
		<path fill="#162919" d="M748.742,825.254c-0.356,1.966-1.214,3.787-2.627,5.352c-1.263,1.615-2.827,3.031-4.696,4.191l-4.14,2.373
			c2.168-0.706,3.787-1.316,4.844-1.77c2.174-1.06,3.94-2.422,5.203-4.089c1.362-1.767,2.123-3.687,2.374-5.756
			c0.202-1.715,0-3.231-0.655-4.593L748.742,825.254"/>
		<path fill="#162919" d="M753.791,830.303c-0.96,1.818-2.122,3.383-3.587,4.645l-7.622,6.512c2.675-0.858,5.454-2.573,8.329-5.201
			C752.831,834.543,753.791,832.574,753.791,830.303"/>
		<path fill="#326A35" d="M619.329,653.828c-1.16,0.961-1.77,1.667-1.872,2.123c-0.048,0.456,0.154,1.061,0.658,1.814
			c0.556,0.659,1.009,1.012,1.365,1.012c0.351,0.049,1.111-0.353,2.371-1.313c1.266-1.009,1.921-1.817,1.972-2.373
			c0.048-0.351-0.151-0.858-0.658-1.513c-0.556-0.759-1.006-1.111-1.462-1.111C621.298,652.415,620.489,652.871,619.329,653.828"/>
		<path fill="#B4D446" d="M618.876,657.162l-0.61-1.111l1.564-1.715c0.96-0.758,1.619-1.111,1.872-1.111l0.707,0.806l0.556,1.061
			c-0.051,0.353-0.556,0.909-1.516,1.718l-1.718,1.009L618.876,657.162"/>
		<path fill="#326A35" d="M619.178,639.895l-1.417,0.404c-3.029,2.728-4.593,4.542-4.647,5.403
			c-0.048,0.758,0.356,1.715,1.111,2.978l2.126,2.473c0.652,0.556,1.458,0.456,2.524-0.401c2.471-2.074,3.835-3.735,4.089-4.949
			c0.248-0.909,0.151-1.87-0.305-2.827c-0.402-1.012-1.06-1.869-2.021-2.524C620.238,640.097,619.734,639.895,619.178,639.895"/>
		<path fill="#B4D446" d="M618.417,649.891l-1.767,0.154c-0.556-0.405-1.108-1.111-1.664-2.123c-0.556-0.958-0.809-1.664-0.809-2.22
			l1.108-1.87l2.781-2.524l1.005-0.302l1.114,0.456c1.664,1.362,2.271,2.775,1.867,4.24
			C621.851,646.711,620.64,648.124,618.417,649.891"/>
		<path fill="#326A35" d="M616.046,653.578c-0.658-1.163-1.567-2.271-2.775-3.334l-1.873-0.052l-2.573,2.422l-2.171,2.374
			c-0.051,0.355,0.806,1.666,2.524,3.94c0.607,0.655,1.259,0.758,2.021,0.302l4.391-3.935
			C616.198,654.74,616.352,654.182,616.046,653.578"/>
		<path fill="#B4D446" d="M612.915,651.152l2.223,2.679c0.103,0.254-0.658,1.108-2.223,2.676c-1.667,1.513-2.573,2.169-2.827,1.918
			l-1.365-1.719l-0.96-1.767l1.721-1.918l2.065-1.869C612.057,650.748,612.51,650.748,612.915,651.152"/>
		<path fill="#162919" d="M613.066,553.399c1.818,0,3.385-0.655,4.696-1.917c1.266-1.314,1.87-2.933,1.821-4.799
			c-0.055-1.918-0.761-3.482-2.126-4.747c-1.208-1.061-2.573-1.612-4.089-1.612c-1.664-0.106-3.177,0.401-4.494,1.563
			c-1.414,1.263-2.12,2.827-2.12,4.796s0.607,3.533,1.818,4.799C609.786,552.744,611.296,553.399,613.066,553.399"/>
		<path fill="#FFFFFF" d="M613.269,541.281c1.262-0.052,2.425,0.404,3.536,1.461c1.156,1.115,1.767,2.428,1.767,3.941
			c0,1.615-0.504,2.93-1.567,3.986c-1.057,1.012-2.371,1.516-3.89,1.516c-1.41,0-2.624-0.504-3.684-1.516
			c-1.06-1.057-1.564-2.371-1.564-3.986c0-1.514,0.556-2.778,1.715-3.838C610.644,541.888,611.852,541.384,613.269,541.281"/>
		<path fill="#162919" d="M592.516,538.203c0,2.573,1.211,4.543,3.585,5.805c-2.274,1.263-4.24,2.172-5.811,2.826
			c2.174-0.15,4.397-0.706,6.568-1.766c1.869-0.961,3.941-2.374,6.212-4.243c2.068-1.667,3.735-3.431,5.098-5.354
			c1.214-1.764,2.023-3.379,2.374-4.847L608.572,533l-3.684,4.395c-0.254-1.67-1.012-3.032-2.174-4.092
			c-1.057-0.957-2.217-1.514-3.582-1.616c-1.564,0-3.032,0.556-4.394,1.719C593.274,534.668,592.516,536.283,592.516,538.203"/>
		<path fill="#FFFFFF" d="M598.927,533c1.365,0.052,2.525,0.607,3.485,1.564c1.015,1.012,1.564,2.223,1.718,3.637l-1.867,1.715
			l-4.949,3.382c-1.063-0.35-1.921-1.009-2.576-1.866c-0.658-0.96-1.012-2.02-1.012-3.23c0-1.465,0.556-2.73,1.619-3.787
			C596.405,533.453,597.568,532.949,598.927,533"/>
		<path fill="#010101" d="M613.066,549.966c0.758,0,1.365-0.251,1.869-0.706c0.456-0.505,0.707-1.111,0.707-1.869
			c0-0.707-0.251-1.311-0.707-1.87c-0.504-0.504-1.111-0.758-1.869-0.758c-0.707,0-1.311,0.254-1.866,0.758
			c-0.507,0.56-0.761,1.163-0.761,1.87c0,0.761,0.254,1.364,0.761,1.869C611.755,549.715,612.359,549.966,613.066,549.966"/>
		<path fill="#010101" d="M598.981,541.182c0.707,0,1.311-0.251,1.866-0.707c0.507-0.508,0.755-1.111,0.755-1.869
			c0-0.707-0.248-1.313-0.755-1.869c-0.556-0.505-1.16-0.758-1.866-0.758c-0.658,0-1.263,0.253-1.818,0.758
			c-0.507,0.556-0.758,1.162-0.758,1.869c0,0.758,0.251,1.361,0.758,1.869C597.719,540.931,598.323,541.182,598.981,541.182"/>
		<path fill="#010101" d="M564.337,571.271c-0.604-1.16-1.359-1.915-2.216-2.319l-4.089-0.306c-1.77,0.405-3.437,1.211-5,2.474
			c-3.081,2.223-5.454,5.152-7.118,8.736c4.944-3.382,8.229-5.351,9.896-5.906c3.177-0.909,5.2-0.154,6.058,2.222l1.111,4.141
			l0.707,3.637c0.453-0.557,0.909-1.668,1.262-3.334c0.402-1.616,0.604-3.231,0.604-4.898
			C565.452,573.95,565.047,572.485,564.337,571.271"/>
		<path fill="#111214" d="M564.241,576.979c0.048,1.263,0,2.627-0.253,4.092l-0.405-2.878l-1.111-3.385
			c-1.365-2.22-3.485-2.927-6.462-2.069c-1.969,0.505-4.645,2.172-8.027,5.05c1.767-2.576,3.587-4.391,5.354-5.505
			c3.533-2.271,6.309-2.979,8.38-2.021c0.755,0.356,1.365,1.163,1.818,2.425C563.987,573.848,564.192,575.312,564.241,576.979"/>
		<path fill="#010101" d="M525.563,541.432l-4.089,2.728c-1.266,1.211-2.277,2.422-3.032,3.584c0.507-0.504,1.468-1.06,2.827-1.615
			c1.57-0.758,2.929-1.163,4.092-1.211c2.374-0.103,3.434,1.413,3.18,4.542c-0.199,2.679-0.755,5.811-1.715,9.392
			c2.573-3.129,4.442-6.261,5.502-9.392c1.314-3.685,1.314-6.309-0.048-7.876c-0.658-0.755-1.619-1.108-2.881-1.108
			C528.189,540.475,526.927,540.776,525.563,541.432"/>
		<path fill="#111214" d="M531.215,542.595c0.459,0.556,0.707,1.263,0.707,2.12c0,0.96-0.248,2.223-0.755,3.835l-2.071,5.155
			l0.809-5.354c0.103-1.465-0.202-2.628-0.96-3.485c-0.707-0.806-1.612-1.159-2.675-1.111l-3.128,0.508l3.183-1.918
			c0.803-0.356,1.715-0.559,2.67-0.559C530.104,541.785,530.865,542.039,531.215,542.595"/>
		<path fill="#162919" d="M772.068,905.033l5.303,0.25c2.676,0.351,5.251,1.009,7.725,1.966c1.969,0.759,4.089,1.821,6.414,3.132
			l3.479,1.921c-2.065-2.576-5.248-4.645-9.488-6.161c-2.572-0.96-5.303-1.513-8.184-1.715
			C774.746,904.274,772.974,904.475,772.068,905.033"/>
		<path fill="#162919" d="M797.615,902.707c1.922-0.401,3.184-0.96,3.787-1.718l-4.844,0.96h-7.121
			c-8.074-0.147-12.725,0.199-13.936,1.061c2.068-0.303,6.713-0.303,13.834,0.054L797.615,902.707"/>
		<path fill="#162919" d="M810.596,902.454c-1.77,2.276-3.485,3.738-5.05,4.394l-6.919,1.719l3.533-0.049l3.941-0.963
			C808.27,906.648,809.731,904.93,810.596,902.454"/>
		<path fill="#162919" d="M777.068,943.608c-2.322,1.159-4.342,2.875-6.111,5.149c-1.263,1.766-2.217,3.687-2.827,5.656
			c1.517-2.274,2.729-3.891,3.588-4.848c1.763-2.071,3.732-3.636,5.853-4.695c1.975-0.857,3.94-1.414,5.906-1.619l5.708,0.459
			c-1.263-0.655-2.878-1.111-4.847-1.262C781.662,942.192,779.236,942.545,777.068,943.608"/>
		<path fill="#162919" d="M747.831,937.949c1.015,0.459,2.12,1.063,3.333,1.872c1.311,0.858,2.322,1.716,2.979,2.524
			c1.865,1.867,3.587,4.041,5.097,6.463c-0.501-2.878-1.866-5.354-4.034-7.522c-1.163-1.111-2.527-2.023-4.041-2.679
			C749.799,938.055,748.688,937.801,747.831,937.949"/>
		<path fill="#162919" d="M656.643,894.275l2.374-0.806l1.564-2.021c-1.516,1.163-2.929,1.815-4.24,1.969h-4.847
			C653.357,894.275,655.078,894.529,656.643,894.275"/>
		<path fill="#162919" d="M632.405,869.283c1.767,1.058,3.835,2.676,6.109,4.844c1.918,1.87,3.639,4.093,5.204,6.768
			c-0.103-0.758-0.507-1.865-1.266-3.33c-0.854-1.668-1.818-3.084-2.98-4.191C636.645,870.494,634.271,869.13,632.405,869.283"/>
		<path fill="#162919" d="M638.366,887.158c-0.556-2.271-1.467-4.545-2.833-6.768c-1.413-2.373-2.824-4.092-4.186-5.148
			c-1.163-0.961-2.428-1.52-3.69-1.619c2.978,1.619,5.203,3.989,6.667,7.121c1.208,2.373,2.625,6.058,4.192,10.956
			C638.868,890.688,638.819,889.176,638.366,887.158"/>
		<path fill="#162919" d="M593.479,894.883c0.248,2.775,0.097,5.653-0.507,8.586c0.456-0.356,0.858-1.416,1.262-3.084
			c0.504-2.02,0.659-3.988,0.405-5.858c-0.253-2.068-0.761-3.633-1.413-4.695c-0.71-0.958-1.667-1.664-2.833-2.069
			C592.114,889.275,593.123,891.648,593.479,894.883"/>
		<path fill="#162919" d="M605.393,911.091c1.869-1.517,3.989-2.274,6.408-2.271l3.687,0.505l2.929,1.214
			c-0.302-0.61-0.96-1.166-2.02-1.719c-1.259-0.658-2.824-0.96-4.596-0.96c-1.966,0-3.533,0.404-4.69,1.16
			C606.301,909.626,605.746,910.336,605.393,911.091"/>
	</g>
</g>
</svg>
