<?xml version="1.0" encoding="utf-8"?>
<!-- Generator: Adobe Illustrator 19.0.0, SVG Export Plug-In . SVG Version: 6.00 Build 0)  -->
<svg version="1.1" id="Layer_1" xmlns="http://www.w3.org/2000/svg" xmlns:xlink="http://www.w3.org/1999/xlink" x="0px" y="0px"
	 viewBox="0 0 600 600" style="enable-background:new 0 0 600 600;" xml:space="preserve">
<path id="XMLID_42_" d="M464,480.8c-7.4-7.3-16.6-11.3-26.6-13.6c-8-1.8-16.2-2.9-24.3-3.9c-8-0.9-16,0-24-1
	c-6.3-0.8-7.2-1.9-5.5-8.1c2.4-8.6,5.9-16.8,10-24.8c1.6-3.2,3.5-6.3,4-10c0.2-1.7,1.4-2.2,2.7-2.8c3.7-1.8,6.5-4.4,7.8-8.4
	c0.5-1.7,1.5-2.8,2.8-3.9c6.8-5.9,9.7-14,11.9-22.3c0.8-2.8,1.5-5.5,3.4-7.9c5.7-7,9-15.1,11.2-23.7c2.7-10.6-0.2-20.4-4.2-30.1
	c-0.5-1.2-1.4-2.5-2.8-2.2c-1.7,0.4-1,2.1-0.9,3.2c0.1,1.3,0.5,2.5,0.8,3.7c2.8,9.1,2.9,18.3,0.4,27.5c-1.2,4.6-2.3,9.2-4.3,13.6
	c-0.3,0.6-0.6,1.5-1.4,1.4c-1.1-0.1-0.9-1.2-0.9-1.9c-0.1-2.1-0.1-4.2,0.5-6.2c2.8-9.2,2.6-18.6,2.1-28c-0.3-4.9-1.3-9.8,0-14.8
	c0.5-2.2,0.9-6.1-3.8-5.5c-1.2,0.1-1.4-1.1-1.6-2c-0.7-2.5-1.4-4.9-2-7.4c-0.4-1.9-1.1-3.5-2.7-4.7c-12.6-9.9-23.6-21.7-38.1-29.1
	c-1.2-0.6-3-1.3-2.8-2.7c0.2-1.5,2.2-1.3,3.5-1.8c9.5-3.1,18.9-6.5,27.4-11.8c5.2-3.2,8.1-7.9,9.7-14.2c-3.2,1-3.7,4.3-6.8,5.5
	c3.2-5.8,7.5-9.5,13.1-11.5c4.4-1.6,8-4.1,10.6-8.1c3.4-5.3,5.8-11.1,6.9-17.3c1.6-8.8-3.3-14.9-12.3-15c-1.9,0-3.7,0.1-5.6,0
	c-3.8-0.1-7,1.3-9.6,4c-2,2.1-4,4.2-6,6.3c-1.1,1.1-2.1,1.7-3.6,0.6c-4.8-3.5-10.4-3.7-16-3.9c-6.1-0.2-7.2-1.7-6.4-7.7
	c1.3-9.7,1.8-19.4-1.1-29c-6.8-22.4-21.6-37.1-43.6-44.8c-3.4-1.2-3.5-1.8-1.3-4.8c9.3-12.4,12.6-26.4,9.9-41.4
	c-3-16.8-15.3-26.4-29.3-34.1c-1.6-0.9-3.4-0.7-5.1,0c-1.6,0.6-1.8,1.5-0.4,2.5c1.7,1.1,3.6,2.1,5.5,3c13.4,6.4,27.4,21.1,25.1,40.4
	c-1.3,10.5-3.6,20.5-10.4,29c-1,1.2-2.3,2.2-3.5,1.2c-1.4-1.1,0.5-1.9,0.9-2.8c0.2-0.4,0.6-0.7,0.9-1.1c7.9-10.5,11.9-22,8.2-35.2
	c-3.1-11.1-10.3-19.3-19.2-26.2c-5.4-4.2-11.2-7.6-18-8.6c-6.7-1-13.4,0-20.1,0.2c-5.3,0.1-10.1,2.2-15.2,3.5
	c-1.1,0.3-2.6,0.7-2.9,1.8c-1.5,4.7-6,5.8-9.4,8.2c-0.7,0.5-1.6,1.3-2.5,0.7c-2-1.2-3.3,0.2-4.6,1.3c-10.3,9.4-16,20.9-14.9,35.1
	c0.2,2-0.9,5.6,1.6,5.6c2.5,0,2.7-3.6,2.9-6c0.2-1.6,0-3.2,0.1-4.9c0-1.4-0.1-2.8,1.1-4.6c0,4.9,0.1,9.1,0,13.3
	c-0.3,9.5,3,17.2,11,22.7c4.1,2.8,8.5,5.1,13.3,6.4c-0.4,1.7-1.5,2.2-2.4,2.8c-6.9,4.7-14.4,8.4-20.5,14.3c-1.9,1.8-2.2,0-2.5-1.4
	c-2.2-9.6-7.9-16.9-15.3-23.1c-2.2-1.8-4.6-2.6-7.4-2.1c-1.3,0.2-2.5,0.8-1.9,2.3c1.1,2.6-0.5,3.8-2.3,4.6
	c-9.4,4.3-17.2,10.9-25.4,17c-0.8,0.6-1.6,1.5-3.7,1.3c4.8-3.7,9-7,13.3-10.2c4.3-3.2,8.7-6.2,12.3-10.2c0.6-0.7,1.7-1.6,0.6-2.6
	c-0.9-0.8-1.9-0.2-2.8,0.5c-0.9,0.7-1.1,2.1-2.7,2.4c0.2-0.7,0.3-1.2,0.5-1.7c0.4-1.3,2.4-2.2,1.4-3.6c-1.1-1.5-3.1-0.5-4.6-0.3
	c-4,0.6-7.6,2.6-11.7,3.4c-9.2,1.8-15.5,7.8-21,15c-0.8,1-1.4,2.6-0.2,3.5c3.3,2.5,0.6,3.3-1.1,4.3c-1.7,1-3.6,1.5-4.5,3.5
	c-2,3.9-2.7,8.1-3,12.4c-0.2,2.8,1.2,3.4,3.7,2.7c2.9-0.8,3.7-3.7,5.5-5.6c0.8-0.9,1.3-2.7,2.8-2c2,0.9,3.3-0.3,4.8-1.1
	c1.9-1.2,3.8-2.4,6.3-3.9c-0.8,1.9-1.9,2.7-2.9,3.4c-5.1,3.9-9.8,8.2-15.4,11.4c-3,1.7-4.1,4.1-3.7,7.5c0.5,4.3,1.7,8.4,3,12.5
	c0.7,2.2,2.2,3.4,4.4,1.6c9-6.9,19.2-12.1,28.6-18.6c2.9-2,6.1-3.7,9.1-5.6c-0.3,1-0.8,1.7-1.5,2.1c-7.8,5.1-14.6,11.4-21.4,17.7
	c-3.9,3.6-8.1,7-11,11.6c-0.8,1.2-1.6,2.4-0.4,3.8c1.3,1.6,2.6,0.4,3.7-0.3c3.1-1.9,6.1-3.8,9.1-5.8c7.4-5.1,14.6-10.2,22-15.3
	c1.4-1,3-1.6,4.5-2.4c0.2,0.3,0.3,0.6,0.5,0.8c-6.1,5.3-12.3,10.6-18.4,15.8c-4.2,3.5-8.2,7.3-11.6,11.5c-1.3,1.7-1.7,3.6,0.1,5.3
	c1.6,1.6,3.2,0.7,4.3-0.4c7-6.5,16.2-10.4,22-18.4c2.1,1.5,1.3,3.2,0,4.6c-4.4,5.2-9.1,10.3-15.5,13.1c-2.1,0.9-2.1,1.9-0.3,3.1
	c3.4,2.2,7.1,3.5,11.1,3.5c1.7,0,3.2-0.5,4.1-2.2c3.2-6.8,9.6-10.6,14.7-15.5c0.6-0.6,1.5-1.6,2.4-0.9c1,0.8,0.3,1.9-0.1,2.9
	c-1.4,2.9-4.1,4.7-6.3,6.9c-3.4,3.4-3.4,3.4,0.8,5.2c-0.9,1.7-2.5,2.3-4.2,2.6c-3.1,0.5-6.2,1-9.3,1.4c-12.1,1.4-23.1-0.6-31.9-9.8
	c-2.3-2.4-4.1-5.3-6.1-8.1c-1.6-2.2-3-4.6-6-5.8c0.8,12.9,11.4,19.1,18.2,27.8c-6.1-2.1-10-6.6-13.6-11.4c-5-6.8-8.1-14.6-11.5-22.2
	c-0.6-1.4-1.3-3.7-3.1-3c-1.7,0.7-0.7,2.9-0.2,4.4c3.3,10.3,8,19.8,14.8,28.2c3.6,4.5,8.3,7.3,14.2,8.1c7.5,1,14.8,0.4,22.2-0.8
	c5.9-1,11.9-2.3,17-5.9c4.3-3,4.2-3,6.1,2.2c4.8,13.2,10.4,26.1,17.6,38.2c1.1,1.8,1.7,5.3,5.4,3c0.2-0.1,0.9,0.2,1.3,0.5
	c4.4,2.8,9.1,5,13.9,7.2c1.6,0.7,2.1,1.7,1.4,3.6c-3.9,9.7-8,19.4-9.8,29.8c-2.8,15.8-7.7,31.1-10,46.9c-1.5,10.6,0.3,20,10.7,25.7
	c2.2,1.2,3.2,3.1,3.6,5.6c0.8,5.5,1.5,11.1,4.5,16c1,1.7,2,4.5,4.5,3.2c2.2-1.1,0.5-3.4-0.1-4.9c-1.7-4.7-3-9.5-3.9-14.4
	c-0.1-0.8-0.7-1.9,0.7-2.3c1.7-0.5,9.5,2.8,10.3,4.3c2.1,3.9,1.1,12-1.9,15.4c-0.8,1-1.8,1.8-2.7,2.7c-3,2.9-3.8,6.1-2.3,10.1
	c2.3,6.4,6.6,11.4,11.1,16.2c2,2.1,2.1,3.8,0,5.9c-3.4,3.5-6.6,7.2-9.9,10.7c-3.9,4.1-7.8,8.2-11.8,12.3c-0.5,0.6-1.1,1.4-2,1.1
	c-1.2-0.3-1-1.4-1.1-2.3c-0.9-10.4-4.6-20-8.3-29.7c-7.3-18.8-31.1-35.2-51-33.5c-2.6,0.2-5.3,0.2-8,0c-7-0.3-13.6,1.3-19.7,4.7
	c-2.8,1.5-5.7,2.5-8.9,2.9c-5.7,0.8-10.6,3.3-14.9,7.1c-8.3,7.4-12,16.9-12.2,27.8c-0.1,11.7-0.2,23.4,1.3,35.1
	c1.3,10.4,3.7,20.3,9.3,29.2c0.6,1,1.4,2.7,2.8,2.1c1.6-0.7,0.4-2.2,0.2-3.4c-0.6-3-2.5-5.6-2.4-8.8c2.8,7.9,7.2,14.8,12.2,21.3
	c2.3,2.9,4.8,5.7,7,8.6c0.5,0.7,2.2,1.8,0.2,2.7c-2.6,1.2-1.5,2.7-0.5,4.2c3.2,4.8,7.7,8.3,12.5,11.4c0.9,0.6,2.6,0.9,2.4,2.2
	c0.3,1.7,0.9,3.9,2.3,6.3c3.3,5.4,8.4,7.5,10.3,8.2c0,0,0,0,0,0c5.9-0.1,11.7,0.4,17.5,2.4c3.5,1.2,7.3,1.5,10.9,0.1
	c3.9-1.5,8-2.3,12.2-2.7c9.9-1.1,17.4-5.8,22.9-13.4l8-21.5c2.6-5.5,6.6-10.5,6-17.3c1.6,1.1,1.2,3.7,3.2,3.3c1.6-0.3,2-2.2,2.1-3.7
	c0.4-6.9,4.8-11.7,9.1-16.3c9.8-10.6,17.5-22.8,25.4-34.7c1.6-2.5,3.1-3.1,5.6-1.7c2.9,1.7,4.9,2.8,6,3.8l0,0l5.1,3.1l8.5-3.1v0
	c2-1.4,4.4-2,7.5-1.2c2.6,0.7,7.2-5,5.8-7.2c-3.2-4.8,0.2-8.6,1.2-12.7c0.2-1.1,1.1-2.4,2.5-1.2c1.7,1.5,3.2,0.7,4.8-0.1
	c1.4-0.8,2.9-1.1,4.1,0.4c1.3,1.5-0.4,2.2-1.1,3.2c-0.4,0.6-0.9,1.1-1.2,1.7c-0.4,0.7-1,1.4-0.4,2.2c0.6,0.8,1.5,0.4,2.3,0.1
	c2.6-1.2,5.1-0.9,7.1,1.1c2,2,1.4,4.5,0.7,6.9c-1.3,4.7-3.7,9-5.7,13.5c-1.7,3.8-4.4,6.5-8.6,7.5c-7.4,1.7-13.2,6-18.7,10.9
	c-2.6,2.4-5.3,4.5-8.4,6.1c-6.9,3.6-12.5,8.8-17,15.1c-0.6,0.8-1.1,2.1-2.2,2c-3.4-0.2-3.2,2.1-3,4.2c0.5,7.1,2.3,14,5.4,20.4
	c1.3,2.7,3.1,5.4,3.3,8.4c0.4,6.3,4.3,10,9.1,13.2c18,11.7,38.3,15,59.1,15.8c5.7,0.2,11.6-0.7,17.4-1.1c10-0.7,20.1-1,30.1-2.1
	c12.4-1.4,23.2-6.3,31.4-15.5c5.8-6.5,10.6-13.8,15.4-21.1C474.1,502.3,472.6,489.3,464,480.8z M225,135.3
	c-10.1,6.1-20.2,12.2-30.3,18.3c-0.2-0.3-0.4-0.5-0.5-0.8c9.1-7.3,17.5-15.5,27.3-21.9c1.5-1,2.7-1.3,3.8,0.6
	C226.1,132.8,227,134.1,225,135.3z M243.5,439.3c0.5,2.2,1.4,4.4,2.1,6.6c0.6,1.7,2.2,3.4,0.4,5.1c-1.9,1.9-4.2,3.5-7.1,2.6
	c-2.4-0.7-4.7-1.9-7.3-2.2c-1.2-0.1-1.7-1.1-1.8-2.3c-0.3-3-1-6,0.3-9.5c0.5,1.7,0.8,2.9,1.1,4.2c0.4,1.3,0.5,3,2.6,2.3
	c1.7-0.5,2-1.8,1.5-3.3c-1.3-4.2-2.4-8.5-4.4-12.4c-1.3-2.6-2.6-5.1-3.6-7.9c4.7,4.8,7.5,10.8,10.2,16.9c0.6,1.4,1.2,2.7,2,4.1
	c0.3,0.6,0.9,1.2,1.6,1c0.7-0.2,0.9-1.1,0.8-1.8c-0.2-3.3-0.6-6.5-2-9.5c-2.6-5.5-5.7-10.6-10.3-14.7c-4.1-3.6-6.8-8.1-9.5-13.6
	c2.4,2.1,4.2,3.5,4.6,6.1c0.1,0.8,0.7,1.4,1.4,1.9C235.7,419.3,241,428.4,243.5,439.3z M233.3,412.4c-1.2-1.1-2.3-2.2-3.5-3.4
	c-1.2-1.1-2.2-2.6-3.5-3.3c-2.4-1.4-3.6-5.6-7.6-3.7c-0.1,0.1-0.6-0.3-0.8-0.6c-2.4-4.3-6.1-7.5-9.6-10.9
	C219.5,394.5,227.4,402.3,233.3,412.4z M158.3,488c-7.5-8.1-13.7-17.2-18.4-27.3c-3.2-6.9-2.9-14-2.6-21.2c0.4-8.3,1.7-16.4,6-23.7
	c0.8-1.4,1.3-4,3.2-3.6c1.5,0.3,1.1,2.8,1.4,4.3c3.5,18.3,5.7,36.9,10.5,54.9c1.9,7.3,4.6,14.3,8.1,21.9
	C162.6,492.3,160.3,490.2,158.3,488z M156.8,434.4c-1-7.2-2.7-14.3-4.8-21.4c-1-3.5-1.8-7.6,1.3-9.6c2.9-1.9,6.1,1.1,8.6,2.9
	c3.6,2.7,5.8,6.6,7.8,10.5c3.9,7.8,6.6,16,9.4,24.3c5.1,15.4,13,29.5,21.6,43.1c1.8,2.9,1.2,4.2-1.7,5.4c-7.9,3.3-16.1,5-24.6,5.9
	c-2.6,0.3-3.6-1.1-4.5-3.4C163.3,473.4,159.5,454,156.8,434.4z M165.2,400.4c5.4,2.6,9,7,11.9,12c5.7,9.8,8,20.7,11.1,31.4
	c0.8,2.7,1.5,5.5,1.5,8.5c-2.1-6-4.3-11.9-6.2-17.9c-2.9-8.8-5.7-17.6-11.3-25.3C170,406.1,167.7,403.2,165.2,400.4z M181.7,526.6
	c-3.6-1.1-10.7-9.7-10.9-13.3c-0.2-2.5,1.5-2.2,3-1.9c2.2,0.5,10.3,11.2,10.4,14.5C184.3,526.8,183.2,527.1,181.7,526.6z
	 M209.8,530.3c-1.7-0.2-3.2,0.4-4.7,0.8c-4.5,1.3-8.9,2.5-13.6,2.3c-1.4-0.1-3-0.1-3.5-1.8c-0.6-2.1,1.5-1.2,2.2-1.7
	c1.5-1,0.8-2.3,0.2-3.4c-1.9-3.9-4.4-7.3-6.9-10.8c-3.2-4.6-3.1-5.1,2.1-6.9c4.7-1.6,9.5-3.1,13.8-5.6c1.3-0.7,2.8-1,3.9,0.3
	c5.7,6.5,10.7,13.4,11.7,20.5C215,530.2,214.3,530.8,209.8,530.3z M252.2,491.5c-0.8,2-1.8,3.1-3.5,0.5c-2.2-3.2-4.6-6.1-7.9-8.2
	c-1.3-0.9-3.1-2.5-4.6-0.5c-1.5,1.9-1.3,4.3,0.8,5.5c4.4,2.7,6.2,6.7,6.6,11.6c0.1,0.7,0.4,1.3,0.7,1.9c4.9,9.9-1.4,21.1-12.5,22.3
	c-1.4,0.1-2.3-0.4-2.8-1.6c-0.6-1.4-1.2-2.8-1.4-4.3c-1.1-9.1-5.9-16.5-10.6-23.9c-8-12.5-13.3-26.3-17.6-40.4
	c-3.4-11.1-6.3-22.3-9.7-33.4c-3.4-11.4-9.1-21.3-20.1-27.3c-0.8-0.4-1.9-0.8-1.8-1.9c0.1-1.3,1.5-1.5,2.4-1.7
	c12-2.9,23.5-2.4,33.5,6.1c9.5,8.1,13.8,18.8,16.2,30.7c2.8,14,1.6,28.2,3.4,42.2c0.3,2.1,0.6,4.1,1,6.2c0.2,0.9,0.6,2,1.6,2.1
	c1.3,0.1,1.7-1,2-2c1.3-4,2-8.1,0.7-12.3c-0.2-0.5-0.1-1.1-0.1-1.7c2.7,2.9,5.5,3.9,9.2,2.1c1.3-0.6,2.5,0.2,3.5,1
	c7.3,6.5,11.3,14.6,11.4,24.4C252.5,489.9,252.5,490.8,252.2,491.5z M384,478.9c-0.5,0.9-1.2,1.8-2,2.4c-5.5,4.6-12.1,6.5-19.1,7.3
	c-2.5,0.3-2.5-0.9-1.7-2.7c0.9-1.9,2.3-3.1,4.1-4.1c3.5-2,7.2-3.6,11.2-4.7c1.2-0.3,2.2-0.8,2.3-2.2c0.1-1.2-0.8-1.8-1.8-2.2
	c-0.8-0.3-2-0.6-1.5-1.8c0.6-1.4,1.7-2.5,3.4-2.7c1.2-0.1,2.4-0.2,3.2,0.8c0.7,0.9-0.3,1.4-0.9,1.9c-1.6,1.4-1.4,2.1,0.7,2.7
	C385,474.3,385.6,475.9,384,478.9z M390.6,407.6c-0.7,2.2-1.4,4.6-3.4,5.9c-4.6,2.8-9.3,5.6-14.8,7.5c0.3-5.4,2.8-8.6,7-10.6
	c3.1-1.5,6.3-3,9.4-4.4C390.6,405.1,391.1,405.8,390.6,407.6z M384.3,281.4c2.5,1.6,3.3,4.1,4.4,7.4c-2.3-1.1-2.5-2.5-2.8-3.8
	c-0.7-3-2.7-3.8-5.5-3.4c-2.2,0.3-4.2,1.3-6.2,2.2c-2.8,1.2-5.6,2.6-9.6,2.1c2-1.4,3.6-2.2,5-3.4c1.6-1.4,4.6-2.6,3-5.4
	c-1.4-2.6-4.1-1.6-6.2-0.6c-4.3,1.9-8.7,3.9-12.6,6.5c-0.7,0.4-1.3,1-2,1.3c-1,0.5-2.3,2.2-3.2,0.7c-0.9-1.5-0.4-3.5,1.6-4.3
	c1.7-0.7,3.6-1.1,5.2-1.9c3.2-1.6,6.5-3.2,6.9-7.5c0.2-1.8,1.4-1.6,2.6-1.1c2.2,0.9,4.6,1.7,6.6,3
	C375.8,275.7,380.1,278.6,384.3,281.4z M376.8,315.3c-4.4,4.8-9.2,8.4-15,10.8c-0.7,0.3-1.7,0.7-2.3,0c-0.8-1,0.3-1.7,0.9-2.3
	c2.7-2.9,5.5-5.7,9.6-6.6C372.1,316.5,373.5,313.8,376.8,315.3z M325.7,300.6c-2.1-2.6-5.7,0.2-8.3,1.8c-5.9,3.6-10.6,8.6-15.8,13.1
	c-1.1,1-2.4,1.9-3.6,2.7c-1,0.7-2.1,1.5-3.5,0.6c-1.6-1-0.6-2.5-0.9-3.8c-0.3-1.6,0.8-2.1,2-2.3c6.9-1.1,12.2-5.6,17.7-9.2
	c8.6-5.6,17.9-9.7,26.8-14.6c0.8-0.4,1.7-0.7,3.3-1.3c-2.9,3.7-6.2,5.1-9.6,6.3c-3.2,1.2-5.3,3.3-5.9,6.7c-0.2,1.1-0.1,2.2,0.7,2.9
	c1,0.9,1.9,0.1,2.8-0.4c1.4-0.8,2.7-1.7,5.3-2c-6.6,7.3-13.7,13.1-20.4,19.3c-2,1.9-4.2,3.6-6.4,5.4c-1,0.9-2.1,1.5-3.5,0.9
	c-1.1-0.5-2.7-0.7-3-2.1c-0.3-1.4,1.3-1.7,2.2-2.3c6.1-4.1,11.5-9,16.7-14.1C324.5,306.1,327.5,302.7,325.7,300.6z M292.5,309.2
	c-1.8,2.3-3.2,1.9-4.4-0.5c-0.7-1.5-2.7-2.8-0.7-5.2c1.4,4,2,4.3,5.3,1.9c4.8-3.4,8.9-7.8,13.3-11.7c0.9-0.8,1.7-1.5,3.4-2.9
	c-1.4,3-3.1,4.5-4.7,6.1C300.6,301.1,296.1,304.7,292.5,309.2z M318.9,327.3c10.1-6.7,19.5-14.5,30.4-19.9c0.2-0.1,0.4,0.1,0.8,0.2
	c-0.2,1.8-1.5,2.8-2.6,3.8c-4.4,4.3-9.6,7.6-14.7,11c-2,1.4-3.9,2.9-5.3,4.9c-1.7,2.6-5.9,3.3-8.5,1.7
	C318.1,328.6,317.9,328,318.9,327.3z M363.4,145.7c0.6-0.1,1,0.4,1.3,0.9c2.9,5.2,5.7,10.4,7.8,15.9c0.3,0.9,0.3,1.7-0.4,2.2
	c-5.1,3.9-4.6,9.9-5.3,15.2c-0.7,6-0.9,12-1.4,18c0,0.6,0.1,1.4-1.1,1.9c0-7.4-0.7-14.7,1.1-21.8c2.1-8.4,0.5-16.3-1.8-24.3
	c-0.6-2.2-1-4.3-1-6.5C362.6,146.7,362.6,145.9,363.4,145.7z M328.7,78.9c1.8,0.9,1,3.4,1.1,5.2c0.2,3.6-1.3,6-4.8,7.5
	c-14.5,6.2-28.4,13.6-42.6,20.5c-0.9,0.4-1.8,0.7-3.7,1.4c1.8-2.8,4-3.7,5.8-5.1c12.7-9.9,26.2-18.8,39.6-27.7
	C325.5,79.9,327.2,78.1,328.7,78.9z M296.2,125.8c-6.2,9.1-14.5,15.3-25.2,18.2C278.7,137,287.5,131.4,296.2,125.8z M319.1,68.2
	c1.6-0.9,4.4-1.9,5.2,0.2c0.7,1.8-2.1,2.3-3.6,2.9c-8.2,2.6-15.2,7.9-23.1,11.1c-0.6,0.2-1.1,0.9-2.1,0.5
	C303.1,77.5,311,72.7,319.1,68.2z M241.7,78.8c0.2-2.7,1.5-4.5,3.7-6c-0.1,3.7,0.5,4.1,3.8,2.8c2.7-1.1,5-2.9,7.3-4.6
	c11.1-7.9,22.8-15.1,34.8-21.7c2.4-1.3,5.1-2.8,9.1-0.3c-6.1,1.7-10.5,4.7-15.2,7c-11.2,5.4-21,12.6-31,19.8c-2.9,2.1-5.9,4-9.4,5.1
	C242.4,81.8,241.5,81.3,241.7,78.8z M258.4,114.4c-5.8-3.4-10.9-7.4-13.9-13.7c-1.2-2.5-1.4-4.3,1.5-5.5c1.2-0.5,2.2-1.3,3.2-2
	c0.5-0.4,1.3-1.3,1.2-1.5c-2.1-3.2,1.2-3.6,2.6-4.6c8.5-6.1,17-12.1,25.6-18.1c0.9-0.6,1.9-1.2,2.8-1.9c0.1,0.2,0.2,0.3,0.3,0.5
	c-2,1.6-4.1,3.1-6,4.7c-1.3,1.2-3.1,2.2-2.3,4.6c0.4,1.2-1,1.7-1.8,2.3c-5.4,4-10.9,7.8-16.4,11.8c-2.9,2.1-5.6,4.5-7.9,7.3
	c-1,1.3-1.8,2.7-0.7,4.4c1.1,1.7,2.5,1.3,4,0.8c1.5-0.5,2.8-1.1,2.6,1.7c-0.1,2.7,2.2,3.7,4.7,3.2c1.9-0.4,3.8-1.1,5.5-2
	c9.8-5.1,19.5-10.2,29.2-15.4c2.4-1.3,4.8-2.7,7.6-3.2c-4.9,3.5-9.7,6.9-14.6,10.4c-6.7,4.7-13.3,9.7-19.4,15.2
	C263.9,115.8,261.6,116.3,258.4,114.4z M268.4,248.6c0.1,1.1,0.2,2.3,0.2,3.5c0,3.1-1,3.8-3.4,1.8c-10-8.2-19.5-17-24.8-29.1
	c-3.5-8.1-4-16.6-2.9-25.3c0.3-2.5,1.6-4.6,2.8-6.7c7.7-12.6,23.1-19.3,37.5-16.3c3.7,0.8,6.4,3.1,9.1,5.5c1.7,1.5,3.3,3.3,5,4.9
	c0.9,0.8,1.7,2.1,3.2,1.6c1.6-0.5,1.6-2.2,1.7-3.5c0.2-1.5,0.3-3,0.3-4.5c0.1-8.1,0.1-16.2,0.1-24.4c0-9.6,3.9-17.8,9.9-25
	c1.5-1.8,3.2-2.7,5.6-3c3.6-0.4,7-1.3,10.6-2c7.3-1.4,13.5,0.8,19,5.5c8,6.8,13,15.3,15.2,25.5c1.8,8.3,3.5,16.6,3.8,25.1
	c0.1,4-0.5,7.8-1.3,11.7c-0.2-5.6-0.4-11.3-0.8-16.9c-0.3-4.8-1.7-9.4-5.3-12.9c-4.1-4.1-8.5-3.6-12,0.9c-5.4,6.8-4.8,14.7-4.9,22.6
	c-0.1,5.2,1.6,10,3.1,14.9c0.9,2.8,0.4,3.7-2.8,4.2c-9,1.4-18,1.2-27,2c-1.7,0.2-4.7-0.1-4.7,1.6c0,1.9,2.9,1.8,4.6,1.9
	c9.6,0.5,19.2-0.7,28.9-0.7c3.8,0,7.6,0,11.5,0.7c-3.6,0.8-7.2,1.6-10.8,2.5c-0.6,0.1-1.5,0.2-1.5,1.2c0.1,0.9,1,0.8,1.6,1
	c0.4,0.1,0.9,0.3,1.4,0.3c7.6-1.4,15.3-0.9,22.7-4.1c8.4-3.6,17.1-7,26.5-7.4c0.9,0,1.9,0.1,2.8,0.2c7.5,1.4,7.5,1.4,5.9,8.7
	c-0.2,0.9-0.6,1.8-0.5,2.7c0.7,6.2-2.7,9.3-7.9,11.6c-6.3,2.8-12.6,5.5-20.3,7c2.8-3.7,5.4-6.6,6.7-10.2c0.5-1.5,1.9-3.5,0.3-4.4
	c-1.7-1-2.8,1.1-3.7,2.4c-1.9,2.6-3.8,5.3-5.6,8c-1.9,2.9-4.5,4.3-8.1,4.6c-8.1,0.6-16.2,0.6-24.3,0.1c-1.4-0.1-3.5-0.8-3.9,1
	c-0.4,2,1.6,2.9,3.4,3.3c5.1,1.3,10.3,1.6,15.5,1.7c1.6,0,3.2,0,4.9,0.3c-4.7,3.4-10.5,1.9-15.6,4c4.6,1.9,9.3,4,14.3,3.1
	c12.8-2.4,25.1-6.6,36.7-12.8c1.9-1,3.8-2.3,5.7-3.4c2.1-1.2,4.1-2.6,6.9-2.7c-0.2,1.6-1.1,2.8,0,4.5c1,1.7-1.1,3.1-2.2,4.3
	c-8.3,9.3-18.4,15.8-30.6,18.3c-18.6,3.8-36.6,1.9-54-5.9c-13.7-6.1-24.9-14.8-32.3-28c-3.6-6.4-3.5-6.7,3.7-6.7
	c11.3,0,22.5,0,33.8,0c2.2,0,4.4,0,6.6,0.5c0.9,0.2,2.3,0.7,2.7-0.7c0.4-1.4-0.3-2.5-1.5-3.2c-1.8-1.1-3.8-1.1-5.7-1.1
	c-13.2-0.2-26.4-0.5-39.7-0.7c-2.1,0-4.3,0-5.5-2.2c-0.9-1.6-1.4-3.2,1.5-3.1c1,0,2.3,0.5,2.8-0.7c0.6-1.4-0.6-2.4-1.4-3.3
	c-2.1-2.5-4.9-3.3-8.1-3.3c-5.6,0-12.1,4.6-13.9,9.9c-0.5,1.4-1.1,3,0.9,3.9c1.8,0.8,3.5,0.4,4.3-1.6c0.8-1.7,1.4-3.4,3.1-4.5
	c1.6-1.1,2.9-1.1,3.4,1c4.3,15.5,11.4,30.1,12.9,46.5c1.7,18.4,16.1,25.9,27.5,25.5c5.6-0.2,10.2-2.9,14.5-6.1
	c2.9-2.1,5.4-4.8,8.6-6.5c1.3-0.7,2.5-1.7,4.6-0.9c-3,3.5-6.9,5.6-10.5,7.9c-12.5,7.8-25.3,9.2-38.5,1.8
	c-7.8-4.4-12.1-11.6-14.8-19.9c-0.9-2.9-1.5-5.8-2.5-8.7c-0.5-1.5-1-3.9-3.2-3.4C268.4,244.7,268.2,246.7,268.4,248.6z M314.7,274
	c-1,1.6-2.8,1.5-4.4,1.5c-7.9,0-15.4-6-17.1-13.5c-0.5-2.4-3.2-4-3-6.8c0.1-0.8-0.7-1.7,0.1-2.2c0.8-0.5,1.5,0.3,2.1,0.8
	c3.2,2.6,6.1,5.4,7.9,9.1c0.7,1.5,1.4,2.9,2.2,4.3c0.5,0.9,1.3,1.7,2.5,1.7c1.4,0,1.7-1.2,1.8-2.2c0.4-3.1,1.8-2.4,3.3-0.9
	c1.2,1.1,2.3,2.3,3.2,3.6C314.5,270.6,315.9,272.1,314.7,274z M269.7,342c1.7-6.3,0.8-12.8,2.1-19.1c1.4-6.9,1.2-14.1,3.2-20.9
	c0.3-0.9,0-2.4,1.4-2.5c1.2-0.1,1.4,1.4,1.8,2.3c2.4,5.9,4.8,11.8,7.1,17.8c1.5,3.9-2.2,5.4-3.9,7.8c-0.8,1.2-1.9,2.2-2.1,3.7
	c-0.8,4.3-2.3,8.3-4.3,12.1c-0.7,1.4-1,3.7-2.9,3.4C269.8,346.2,270.5,343.6,269.7,342z M254.9,465.6c0.8-3.8,17.2-15.3,28.1-19.3
	C273.2,452.4,266.4,462.5,254.9,465.6z M263.6,482.4c-0.5,0.6-1.1,1.3-2.1,0.8c-0.7-0.4-1-1.1-0.9-1.8c0.2-1.4,1.2-0.5,1.9-0.6
	c1.8-0.1,2.4-1.7,3.3-2.8c5.7-7,11.7-13.7,18.1-20.2C277.7,466.4,271,474.7,263.6,482.4z M287,405.9c-2.2,3-4.4,5.9-6.6,8.9
	c-1,1.3-1.9,1.2-2.8-0.1c-2.3-3.4-4.4-6.9-6-10.6c-0.9-2.1,0.8-4.2,3.6-4.1c4.1,0.1,7.8,2,11.6,3.5c0.4,0.2,0.6,0.6,0.9,0.9
	C287.3,405.1,287.2,405.6,287,405.9z M356.4,410.3c-3.5,1.1-7.3,1.5-10.9,2.2c-1.2,0.2-2.3,0-3.2-0.9c-1.9-2-3.3-1.2-4.9,0.5
	c-2.5,2.7-3.3,6.1-4.7,9.2c-1.6,3.8-2.4,4-5.5,1.5c-2.9-2.4-5.6-4.9-8.1-7.6c-2-2.2-2.7-4.5-1.4-7.3c0.7-1.4,1.6-3.3-0.1-4.4
	c-1.8-1.1-3.2,0.3-4.4,1.8c-2.5,3.2-3.2,3.3-6.3,0.5c-1.4-1.3-4-2.4-3.3-4.4c0.7-2.1,3.4-1.2,5.3-1.4c2.3-0.2,4.7,0.3,6.9-0.4
	c0.7-0.2,1.5-0.5,1.4-1.3c-0.1-0.5-0.6-1-1-1.3c-3.1-2.1-6.4-2.2-10-1.1c-2.8,0.9-5.5,2.5-9,2.1c1-2,2-3.7,2.7-5.5
	c0.6-1.4,1.3-3-0.7-3.9c-1.6-0.7-2.5,0.5-3.3,1.8c-2.5,4.3-5.1,5.3-10,3.9c-6.3-1.9-7.9-5.5-4.8-11.3c1.3-2.4,3-4.7,4.2-7.2
	c1.3-2.9,0.4-5-2.6-5.5c-4.3-0.7-5.3-3-4.8-6.8c0.1-0.9,0.1-1.9,0.1-2.8c0.5-5.1,1.2-5.6,6.3-4.7c7.6,1.4,15.2,1.6,22.9,1.4
	c0.9,0,2.2,0.2,2.2-1c0.1-1.1-1.2-1.4-2.1-1.5c-6.1-1-12.1-2-18.2-3c-0.8-0.1-1.6-0.3-2.4-0.5c-5.9-1.3-6.3-2.1-4-7.6
	c1.2-2.7,2.4-5.3,3.6-7.9c1.1-2.3,1.9-4.9,5.4-3.4c0.3,0.1,0.8,0,1-0.2c4.3-3.1,8.4-1.1,12.5,0.4c14.6,5.2,29.5,5.4,44.6,3.4
	c1-0.1,2.1-0.2,3.1-0.3c2.2-0.2,3.2,0.6,3.2,2.9c0.1,18.8,0.5,37.6-4.5,56c-0.8,2.9-1.2,5.9-1,9c0,1-0.1,2.4,1.1,2.7
	c1.3,0.3,2.1-0.9,2.5-2c0.4-0.9,0.6-2,0.9-3c3-11.2,6-22.3,7.1-34.7c1.8,3.7,3.7,6.4,6.2,8.7c0.9,0.8,2.1,2,3.4,1.2
	c1.3-0.8,0.4-2.2,0-3.2c-0.9-2.4-1.1-4.3,0.7-6.7c1.7-2.2,0.7-5.4,0.8-8.2c0.2-4.9,2.1-9.4,2.4-14.6c2.1,0.6,3.3,2.2,4,4.1
	c3.4,9.8,2.6,18.9-4.3,27.1c-0.9,1-2.5,2-1.8,3.4c0.8,1.6,2.7,1,4.1,0.8c1.8-0.2,3.4-0.9,4.6-2.3c6.8-8,7.6-17.1,4.7-26.8
	c-0.7-2.3-2.1-4.4-3.3-6.5c-2.6-4.9-7-6.4-12-5.7c-4.7,0.7-7.3,4.1-8.6,8.5c-0.1,0.5,0,1.2-0.8,1.4c-0.3-3.4-0.7-6.9-1-10.3
	c-0.2-1.9,0.4-3.4,2.2-4.3c6.4-3.5,12.8-7,19.2-10.5c1.5-0.9,2.2-0.3,2.5,1.1c1.3,5.1,3.2,10.1,3.9,15.5c1.2,9.8,5.7,18,13.7,24
	c2.2,1.6,4.2,1.3,5.9-0.5c5.7-6.3,11.8-24,6.4-34.3c-5.5-10.4-12.4-11.3-19.9-2.4c-0.6,0.7-1.2,1.4-1.7,2.2c-1.2,2-1.9,1.4-2.6-0.4
	c-3.5-8.5-3.5-8.4,3.1-14.9c1.4-1.4,2.8-2.8,4.1-4.2c1.8-1.9,3.6-3.2,6.3-1.2c1.9,1.4,2.6-0.2,2.3-1.8c-0.3-1.8-1.1-3.5-1.8-5.8
	c3,0.4,4.3,2.2,5.5,4c6.4,9.5,8.5,20.2,8.7,31.4c0.3,17.9-4,34.5-14.7,49.1c-4.7,6.4-11.7,10-17.9,14.6c-2.7,2-4,1.1-4.8-2
	c-0.2-0.8-0.2-1.7-1.2-1.9c-1-0.1-1.4,0.6-1.9,1.3c-0.5,0.7-1,1.3-1.4,2c-1,1.6-1.6,1.9-2.8,0c-1.3-2.2-3.5-1.6-3.9,0.4
	C368.9,407.1,362.3,408.3,356.4,410.3z M402.9,347.7c-0.5-6.1-0.2-12.3,0.5-18.4c0.1-0.9,0.3-1.9,1.3-2.3c1-0.4,1.8,0.4,2.4,1
	c2.7,2.8,3.8,6.3,3.7,10.5c-0.3,5.5-1.9,11-4.4,16.3c-0.4,1-1,2-2.2,2.1c-1,0.1-2.5,0.5-1.5-1.7
	C403.7,352.8,403.1,350.2,402.9,347.7z M352,481.2c3,0.8,4.9,4,4.4,7c-0.4,1.8-1.8,0.9-2.9,1.2c-3.5-0.8-7.3-0.5-10.8-1.9
	c-3.1-1.2-3.1-2.2-1.3-4.8c2.1-3.1,4.2-5.3,8-2.3C350.1,480.9,351.2,480.9,352,481.2z M332.6,472.1c1.6-3.6,9.6-8.8,13.9-9.1
	c0.1,1.5-1.1,2.1-2.2,2.2c-2.7,0.2-3.3,2-3.7,4.2c-0.6,3.2-3.7,5.6-7,5.5C331,475,332.1,473.3,332.6,472.1z M318.3,528.1
	c10.2,4.4,20.7,5.7,30,11.2C341.5,542.2,320.8,534.8,318.3,528.1z M441,534.5c-7.4,3.8-15.6,4.8-23.7,6.3c-2.7,0.5-5.5,0.6-8.2,0.9
	c13-3.4,26.3-6.2,38.5-14.1C446,531.2,443.8,533.1,441,534.5z M451.8,511c-4.8,8-11.7,13.4-20.1,17c-13.2,5.6-27.1,7.9-43.3,8.1
	c-18.5-0.9-38.6-3.3-57.9-10.2c-7-2.5-13.3-6.3-18.4-12c-7.2-8-6.8-24.9,2.8-32.3c1.7-1.3,4.5-3.6,5.6-2.3c1.6,1.8-1.2,3.7-2.6,5.3
	c-1.8,2.1-4.6,3.2-5.8,5.9c-0.3,0.7-0.9,1.5-0.1,2.2c0.6,0.5,1.4,0.1,2-0.2c2.8-1.2,5.1-3.2,7.5-5c1.4-1,2.5-1.4,3.9,0
	c9,8.5,19.9,10.4,31.6,8.4c4.6-0.8,9.1-1.7,13.7-2c8.3-0.7,16-3.6,23.3-7.6c2.2-1.2,3.9-2.9,4.7-5.4c0.7-2.1,2.2-3.3,4.2-3.7
	c10-2.2,20.2-3.1,30.4-1.3c3.3,0.6,5.9,2.2,8.3,4.7c5.2,5.5,9.2,11.5,11.4,18.9C454.2,503.6,454,507.3,451.8,511z"/>
<path id="XMLID_41_" d="M267.6,401.8c-8.6-1.9-17.2-4.5-25.4-7.7c-11.3-4.5-37.8-15.1-57.4-40.6c-10-13.1-26.8-34.9-18.1-54.6
	c4.2-9.4,14.2-17.7,25.5-21c8-2.4,15.4-1.7,20.7,1.7c3.4,2.2,7.9,7,9.6,16.8l-7.4,1.3c-1.3-7.1-4.1-10.3-6.3-11.8
	c-3.5-2.3-8.6-2.6-14.5-0.8c-9.1,2.7-17.4,9.4-20.7,16.8c-6.9,15.5,8.2,35.2,17.2,46.9c18.3,23.9,43.5,33.9,54.2,38.2
	c7.8,3.1,15.9,5.6,24.1,7.4L267.6,401.8z"/>
</svg>
