<?xml version="1.0" encoding="utf-8"?>
<!-- Generator: Adobe Illustrator 26.0.1, SVG Export Plug-In . SVG Version: 6.00 Build 0)  -->
<svg version="1.1" id="Layer_1" xmlns="http://www.w3.org/2000/svg" xmlns:xlink="http://www.w3.org/1999/xlink" x="0px" y="0px"
	 viewBox="0 0 100 100" style="enable-background:new 0 0 100 100;" xml:space="preserve">
<style type="text/css">
	.st0{fill:#FFFFFF;}
</style>
<path class="st0" d="M92.1,46.5c-4.2,5.3-11.1,7.2-17.8,5.6c1.5,3.4,2.4,7.2,2.4,11.2c0,14.9-12.1,27-27,27c-14.9,0-27-12.1-27-27
	c0-4,0.9-7.9,2.5-11.3c-7.3,1.8-15-0.8-19-7c-5.2-8-2.3-19.2,6.6-24.9c8.8-5.7,20.2-3.8,25.4,4.2c2.7,4.2,3.2,9.2,1.9,13.8
	c3-1.2,6.3-1.8,9.7-1.8c3.4,0,6.7,0.6,9.8,1.8c-1.5-5.3-0.7-11,2.8-15.3c6-7.5,17.5-8.3,25.7-1.7C96.2,27.6,98.1,39,92.1,46.5z"/>
</svg>
