<?xml version="1.0" encoding="utf-8"?>
<!-- Generator: Adobe Illustrator 19.0.0, SVG Export Plug-In . SVG Version: 6.00 Build 0)  -->
<svg version="1.1" id="Layer_1" xmlns="http://www.w3.org/2000/svg" xmlns:xlink="http://www.w3.org/1999/xlink" x="0px" y="0px"
	 viewBox="0 0 600 600" style="enable-background:new 0 0 600 600;" xml:space="preserve">
<style type="text/css">
	.st0{fill:#F6EB14;}
	.st1{fill:#468BCA;}
	.st2{fill:#ED1E24;}
</style>
<circle id="XMLID_1_" class="st0" cx="291.2" cy="280.8" r="233.2"/>
<path id="XMLID_4_" class="st1" d="M426.3,90.6c14.1,10.5,24.7,33.6,31.8,48.9c16.8,35.9,20.7,74.6,11.6,113.3
	c-7.2,30.2-21.1,58.4-37.8,84.7c-26.6,41.9-60.8,79.7-103.3,105.3c-66.9,40.4-164.3,59.4-226.3-25.1c0,0,67.4,103.9,201.2,96.3
	c123.9-7,216.4-126.9,218.7-246.2c0.2-10.9,0.6-22-2.3-32.6C511.2,203.2,497.2,143.5,426.3,90.6z"/>
<path id="XMLID_3_" class="st2" d="M114.9,128.1c0,0-7,26-6.2,37.9c0,0-44.9,50.8-48.7,113.1c0,0,16.5-30.9,58-42.3
	c0,0,18.2,77.9,64.8,138.9c0,0-5.5-94.8,13.5-161.3c0,0,108-8.5,162.6,4.7c0,0-69.9-55.9-124.1-87.6c0,0,14.8-44,69.4-69.4
	c0,0-41-13.8-127.5,43.2l-31.7-6.1c0,0-8.4,6.8-15.8,13.9C122.4,119.4,116.3,126.4,114.9,128.1z"/>
</svg>
