<?xml version="1.0" encoding="utf-8"?>
<!-- Generator: Adobe Illustrator 19.0.0, SVG Export Plug-In . SVG Version: 6.00 Build 0)  -->
<svg version="1.1" id="Layer_1" xmlns="http://www.w3.org/2000/svg" xmlns:xlink="http://www.w3.org/1999/xlink" x="0px" y="0px"
	 viewBox="0 0 600 600" style="enable-background:new 0 0 600 600;" xml:space="preserve">
<style type="text/css">
	.st0{fill:#EE1F48;}
</style>
<path id="XMLID_156_" d="M441.5,535.2c-34.4-26-48.6-61.9-53.3-73.7c-5.3-13.4-8.8-22.3-11.7-35.1c-0.6-2.8-1.1-5.2-1.5-7.4
	c-1.3-6.5-2.2-11.3-5.7-17.6c-2.4-4.5-8.2-14.9-20.8-20.7c-10.5-4.8-20-3.7-23.1-3.4c-2.6,0.3-5.2,0.8-7.9,1.5
	c-3.1-3.6-6.5-6.5-8.7-8.4c-3.5-3-6.5-4.7-9.5-6.5c-3-1.7-6.1-3.5-9.8-6.7c-4-3.4-7.5-7.3-10.6-11.7l9.7-4.2
	c-2.5-0.7-7.4-2.5-12-6.9c-0.4-0.4-0.8-0.8-1.1-1.2c0.7,0,1.5,0.1,2.2,0.1c25,0.9,43.4-9.7,53.3-15.4c28.2-16.3,42.2-39,51.4-54.1
	c24.3-39.6,34.1-80.6,28.4-118.8c-1.4-9.6-4.1-27.6-16.6-45.8c-11.8-17.2-26.5-26.2-32-29.6c-12.4-7.6-23.2-10.8-31.8-13.3
	c-6.9-2.1-25.4-7.5-47.1-7.3c-11.1,0.1-44.9,0.5-73.3,22.3c-40,30.7-42,84.3-42.6,101.9c-1.5,40.3,13.1,69.9,26,96
	c11.4,23.2,21.7,34.7,27.9,40.4c2.1,1.9,3.8,3.2,4.9,4c11.3,8.7,23.3,14.5,35.7,17.4c0.8,2.3,1.4,4.9,1.7,8
	c0.5,5.9-0.5,10.7-1.4,13.6l13.1-5.7c3.4,5,7.3,9.4,11.7,13.1c4,3.4,7.2,5.3,10.4,7.1c2.9,1.7,5.7,3.3,8.9,6
	c1.9,1.6,4.5,3.9,7.2,6.7c-12.2,4.4-23.4,13.1-26.2,25.2c-1.7,7.2-1.2,19.7,6.9,24.7c3.1,1.9,7,2.5,11.2,1.7
	c12.2-2.4,22.3-18.5,21.2-33.6c-0.5-6.1-3-11.4-6.2-15.8c2-0.5,3.9-0.8,5.6-1c2.9-0.3,11.5-1.3,21.1,3c11.4,5.2,16.7,14.8,18.9,19
	c3.2,5.8,4,10.1,5.3,16.5c0.4,2.2,0.9,4.6,1.5,7.5c2.9,13.1,6.5,22.1,11.9,35.7c4.8,12.1,19.3,48.7,54.6,75.4
	c4.3,3.2,8.7,6.2,13.3,8.9l2-3.4C450,541.3,445.7,538.4,441.5,535.2z M315.1,122.4c-5.4,7.3-10.7,17.1-12.4,16.3
	c-0.5-0.3-0.4-1.7-0.3-2.7c1.1-4.1,4.6-14.9,14.1-23.6c8.4-7.7,17.2-9.7,21-10.3C326.2,109,319.3,116.6,315.1,122.4z M306.2,275.5
	c0.8-2.1,1.2-3.1,2-4.1c0.3-0.4,3.1-3.9,6.8-3.6c0.4,0,1.5,0.2,2.5,0.9c1.6,1.2,1.9,3.1,2.1,4c1.1,6-3,13.4-3,13.4
	c-4.5,8.1-10.7,14-16,17.9c0,0-3.4-6.9-3.4-6.9l0,0c-0.1-0.2-0.2-0.3-0.3-0.5c-2.1-4.2-5.3-7.9-6.5-12.5c-0.8-3.1-1-5.9,2.2-7.9
	c2.3-1.5,4.7-1.4,5.4-1.3c0.6,0.1,3.8,0.4,5.7,3c0.6,0.9,0.9,1.8,1,2.4c0,0,0,0,0,0C304.9,279,305.4,277.4,306.2,275.5z
	 M197.5,267.5c-13.3-26.9-27-54.7-25.5-93.8c0.7-18.9,2.6-69,40.8-98.3c27.1-20.8,59.7-21.2,70.4-21.3c21.1-0.2,39,5.1,45.8,7.1
	c8.4,2.5,18.9,5.6,30.7,12.8c5.3,3.2,19.3,11.8,30.6,28.2c11.9,17.3,14.5,34.6,15.9,43.8c5.6,37-4,77-27.7,115.6
	c-9,14.7-22.6,36.8-49.7,52.5c-7.2,4.1-19,11-34.7,13.7c14.9-4.6,25-13.6,27.3-15.7c3.8-3.5,16.1-15.1,21.9-34.7
	c0.4-1.2,5.5-25.5,1.9-44.1c-1.3-6.9-2.5-13.8-3.4-20.8c-0.9-6.3,1.5-10.7,6.7-14.3c9.3-6.4,19-12.5,26.7-20.9
	c9.6-10.5,15.1-23.9,14.4-39.6c-0.2-4.8-1.2-15.3-7.5-25.6c-9.5-15.5-24.2-19.2-27.7-20c-3.8-0.7-9.4-1.3-16.1-0.3
	c-4.9,0.7-9.7,2.2-14.5,4.5c-23.3,11.2-37.6,38.4-34.6,66.3c0.4,3.8,0.5,7.6,0.2,11.4c-0.3,5-3.2,6.8-7.5,6.5
	c-4.2-0.2-7.3-1.8-6.6-7.1c0.5-4.3,1.5-8.7,2.8-12.7c4.3-12.4,7.9-24.8,6.1-38.2c-3.3-23.8-22.3-34.5-37.3-37.4
	c-5-1-10.3-0.8-15.5-1c0,0-1.9,0.3-4.6,0.7c-4.1,0.7-14.8,3.3-24.6,13.5c-11.3,11.8-13.8,26.1-14.4,30.4c-2.1,11.3-0.8,19.8,0,25.1
	c2.3,16.7,10.9,29.7,22.8,39.8c8.2,6.7,12.4,10.7,13.5,15.6c1.7,7.5-2,13.1-5.2,21.6c-6.9,18.2-7.8,40.9-1.5,58.2
	c4.9,13.4,13.3,21.3,17.8,25.3c0.7,0.6,1.5,1.4,2.5,2.2c-4-2.5-6.9-4.7-8.7-6.1C224.9,307.2,212.3,297.5,197.5,267.5z M227.6,273.9
	c-8.9-16.7,1-55.2,15.6-60.2C229.9,231,226.3,251.2,227.6,273.9z M203.6,133.1c-0.3-1.9-0.5-4.9,0-8.5c1.3-10.5,7.4-17.3,9.5-19.4
	c1.8-1.8,5.5-5.4,11.3-6.9c3-0.8,5.6-0.7,7.4-0.5c-3.9,1.8-9.5,5.1-15.1,11.1C208.3,117.9,204.9,128,203.6,133.1z M322.6,398.5
	c1,13.1-7.8,27.4-18,29.5c-3.2,0.6-6.1,0.2-8.3-1.1c-5.9-3.7-6.5-14.2-5.1-20.5c2.8-12,14.4-19.4,25.1-22.8
	C319.4,387.7,322.1,392.8,322.6,398.5z"/>
<path id="XMLID_155_" class="st0" d="M301.2,279.7c-0.6-0.7-2.1-2.4-3.8-2.3c-0.8,0.1-1.5,0.5-1.5,0.5c-0.8,0.5-1.2,1.1-1.4,1.5
	c-0.7,1.3-0.7,2.8-0.5,4c0.4,2.4,2,5.1,5.1,10.4c0.1,0.1,0.9,1.5,1,1.7l0,0c0.7,1.3,1.3,2.6,2,3.9c4.2-4.4,14.1-15.4,13.8-23.1
	c-0.1-1.4-0.2-4.1-1.7-4.7c-1.7-0.7-4.1,2-4.3,2.1c-1.2,2.6-2.4,5.5-3.6,8.7c-0.8,2.3-1.5,4.6-2,6.7
	C304.4,287.4,304,282.8,301.2,279.7z"/>
<path id="XMLID_154_" d="M362.9,84.1c-1-0.9-1.9-1.8-3-2.5c-12.1-7.5-24.8-13.4-38.8-16.3c-3.4-0.7-7-1.1-10.4-1.6
	c-1-0.1-1.9,0.2-2,1.3c-0.2,1.2,0.6,1.6,1.6,1.8c1.3,0.3,2.6,0.6,3.8,0.9c5.5,1.3,11.1,1.7,16.4,3.8c10.4,4.3,21.2,7.7,30.4,14.6
	c0.8,0.6,1.8,1.3,2.7,0.1C363.7,85.4,363.5,84.6,362.9,84.1z"/>
<path id="XMLID_153_" d="M236.4,73.9c14-6.2,28.8-8.9,44-8.9c2.2,0,4.5,0.1,6.7,0.3c1.4,0.1,3-0.1,3.2-1.5c0.2-1.6-1.3-1.8-2.8-1.9
	c-1.8-0.1-3.6-0.8-5.4-0.8c-11.2-0.5-22,1.7-32.8,4.7c-6.2,1.7-12.1,4.3-17.7,7.4c-0.9,0.5-2.1,0.8-0.9,2.2
	C233,76,234.7,74.7,236.4,73.9z"/>
<path id="XMLID_152_" d="M182.2,185.5c-0.3-5.4-0.3-10.7,0.1-16c0.1-1.4-0.3-2.8-1.9-2.9c-1.9-0.1-1.2,1.6-1.4,2.6
	c-1.8,13.3-0.2,26.4,2.3,39.4l0,0.3l0.3,0.2c0,0,0.1,0.4,0.1,0.4c0.7,2.6,1.5,5.1,2,7.7c0.3,1.8,1.2,2.8,3,3
	c1.5-1.7,0.7-3.5,0.1-5.2C183.6,205.4,182.8,195.5,182.2,185.5z"/>
<path id="XMLID_151_" d="M198.4,256.1c0.4,0.5,1.1,0.7,1.8,0.4c0.9-0.5,1-1.4,0.6-2c-2.4-4.1-4.8-8-6.8-11.4
	c-1.4-0.9-2.1-1.3-2.9-0.8c-0.8,0.5-0.8,1.4-0.4,2.1C193,248.5,195.4,252.5,198.4,256.1z"/>
</svg>
