<?xml version="1.0" encoding="utf-8"?>
<!-- Generator: Adobe Illustrator 19.0.0, SVG Export Plug-In . SVG Version: 6.00 Build 0)  -->
<svg version="1.1" id="Layer_1" xmlns="http://www.w3.org/2000/svg" xmlns:xlink="http://www.w3.org/1999/xlink" x="0px" y="0px"
	 viewBox="0 0 600 600" style="enable-background:new 0 0 600 600;" xml:space="preserve">
<style type="text/css">
	.st0{fill:#ED1C24;}
	.st1{fill:#0A0809;}
	.st2{fill:#FFFFFF;}
</style>
<g id="XMLID_11_">
	<path id="XMLID_12_" d="M553.7,115.9C515,63,444.9,48.5,397.1,83.4c-32.1,23.5-46,63.4-39.9,103c52.9,16.3,95.5,56.2,115.4,107.4
		c22.8,1.1,45.5-4.9,64.6-18.9C585,240.1,592.4,168.8,553.7,115.9z"/>
	<path id="XMLID_17_" d="M254,185.5c5.9-41.6-10-83-44.6-105.7C159.7,47.5,90.5,65.7,54.6,120.5c-35.9,54.9-24.8,125.6,24.8,158
		c17,11.1,36.3,16.3,55.8,16C155.4,242,199.3,201.2,254,185.5z"/>
	<path id="XMLID_18_" class="st0" d="M357.2,186.5c-16.8-5.2-34.7-8-53.2-8c-17.4,0-34.2,2.5-50.1,7c-54.6,15.7-98.6,56.5-118.7,109
		c-7.7,20.1-11.9,41.9-11.9,64.7c0,99.8,80.9,180.8,180.8,180.8s180.8-80.9,180.8-180.8c0-23-4.3-45.1-12.2-65.4
		C452.7,242.6,410.1,202.7,357.2,186.5z"/>
</g>
<path id="XMLID_158_" d="M307.7,178.5c0,14.3,0,28.6,0,42.8c0,0.6,0.2,0.9,0.6,1.3c9.7,9.4,20.6,17.1,32.6,23.2
	c9.9,5,20.3,8.6,31.1,10.9c8.5,1.8,17,2.8,25.7,2.9c0.6,0,1-0.2,1.4-0.6c9.8-9.8,19.6-19.6,29.4-29.5c0.3-0.3,0.5-0.5,0.6-0.8
	c1.8,1.8,3.5,3.5,5.2,5.3c-1.3,1.2-2.6,2.5-3.9,3.8c-8.7,8.7-17.5,17.5-26.2,26.2c-0.5,0.5-0.7,0.9-0.6,1.6
	c0.6,27.3,8.7,52.1,24.6,74.4c3.8,5.3,8,10.3,12.6,15c0.3,0.3,0.9,0.5,1.3,0.5c13.9,0,27.7,0,41.6,0c0.4,0,0.7,0,1.1,0
	c0,2.4,0,4.8,0,7.2c-0.3,0-0.7,0-1,0c-13.9,0-27.8,0-41.7,0c-0.6,0-1,0.1-1.4,0.6c-13.1,13.6-22.9,29.2-29.3,46.9
	c-3.1,8.5-5.2,17.3-6.5,26.3c-0.7,5.4-1.2,10.8-1.3,16.3c0,0.6,0.2,1,0.6,1.4c9.6,9.6,19.2,19.2,28.8,28.7c0.5,0.5,1,0.9,1.4,1.3
	c-1.8,1.7-3.4,3.4-5.2,5.1c-0.1-0.1-0.4-0.3-0.6-0.6c-9.8-9.8-19.6-19.6-29.5-29.5c-0.4-0.4-0.9-0.6-1.5-0.6
	c-30.7,0.7-57.9,10.7-81.6,30.1c-2.7,2.2-5.2,4.6-7.8,6.9c-0.5,0.4-0.6,0.8-0.6,1.4c0,13.9,0,27.7,0,41.6c0,0.4,0,0.7,0,1.1
	c-2.4,0-4.8,0-7.2,0c0-0.4,0-0.7,0-1.1c0-13.9,0-27.8,0-41.7c0-0.6-0.2-1-0.6-1.4c-11.8-11.4-25.3-20.4-40.4-26.8
	c-9.4-4-19.1-6.8-29.1-8.4c-6.6-1.1-13.2-1.7-19.8-1.8c-0.6,0-1.1,0.2-1.5,0.6c-9.8,9.8-19.6,19.6-29.5,29.5
	c-0.2,0.2-0.4,0.5-0.6,0.8c-1.8-1.8-3.5-3.5-5.2-5.2c0.2-0.2,0.4-0.4,0.6-0.7c9.8-9.8,19.5-19.5,29.3-29.3c0.6-0.6,0.8-1.1,0.8-1.9
	c-0.7-29.3-9.9-55.6-28-78.7c-2.8-3.6-6-7-9.1-10.4c-0.3-0.3-0.9-0.6-1.3-0.6c-14.3,0-28.6,0-42.8,0c0-2.4,0-4.8,0-7.2
	c14.3,0,28.6,0,42.8,0c0.4,0,1-0.2,1.2-0.5c3.6-4.1,7.3-8,10.6-12.4c17.2-22.8,26-48.5,26.6-77c0-0.7-0.2-1.1-0.6-1.6
	c-8.7-8.7-17.5-17.5-26.2-26.2c-1.3-1.3-2.7-2.6-3.9-3.8c1.8-1.8,3.4-3.5,5.3-5.3c0.2,0.2,0.3,0.6,0.6,0.8
	c9.8,9.8,19.6,19.6,29.4,29.5c0.4,0.4,0.8,0.6,1.4,0.6c8.6-0.1,17.2-1.1,25.6-2.9c10.9-2.3,21.3-6,31.2-10.9
	c12.1-6.1,22.9-13.8,32.6-23.2c0.3-0.3,0.6-0.9,0.6-1.3c0-14.3,0-28.6,0-42.8C302.8,178.5,305.3,178.5,307.7,178.5z M211.6,272
	c-2.2,31.8-13.7,59.6-34.7,83.7c0.4,0,0.5,0,0.7,0c11.3,0,22.6,0,33.9,0c0.4,0,0.9-0.3,1.2-0.6c4.4-4.6,8.3-9.7,11.6-15.2
	c7.8-13,11.8-27.1,12.2-42.2c0-0.4-0.2-1-0.5-1.3c-7.9-7.9-15.8-15.8-23.7-23.7C212,272.4,211.8,272.2,211.6,272z M431.2,355.7
	c-21-24.1-32.5-51.9-34.7-83.7c-0.2,0.2-0.4,0.3-0.5,0.5c-8,8-15.9,15.9-23.9,23.9c-0.3,0.3-0.5,0.8-0.5,1.2
	c0.1,6.5,1,12.9,2.6,19.3c3.7,14.4,10.7,27.1,20.8,37.9c0.6,0.7,1.2,0.9,2.2,0.9c10.9,0,21.9,0,32.8,0
	C430.4,355.7,430.7,355.7,431.2,355.7z M211.6,446.6c0.2-0.2,0.4-0.3,0.5-0.4c8-8,16-16,23.9-24c0.3-0.3,0.5-0.8,0.4-1.2
	c-0.1-5.1-0.6-10.1-1.7-15.1c-3.3-16.3-10.8-30.4-22.2-42.4c-0.3-0.3-0.8-0.5-1.2-0.5c-11.2,0-22.4,0-33.6,0c-0.2,0-0.5,0-0.8,0.1
	C197.8,387,209.3,414.8,211.6,446.6z M391.4,266.8c-31.9-2.2-59.7-13.7-83.8-34.7c0,0.4,0,0.6,0,0.7c0,11.3,0,22.5,0,33.8
	c0,0.4,0.3,0.9,0.6,1.2c7.8,7.5,16.7,13.3,26.7,17.4c9.8,4,20.1,6.2,30.7,6.5c0.6,0,1.1-0.2,1.5-0.6c4.9-4.9,9.8-9.9,14.8-14.8
	C385,273.2,388.1,270.1,391.4,266.8z M216.8,266.8c0.1,0.2,0.2,0.3,0.3,0.4c8,8,16.1,16.1,24.1,24.1c0.2,0.2,0.7,0.4,1,0.4
	c1.1,0,2.1-0.1,3.2-0.1c7.7-0.4,15.1-1.9,22.4-4.3c12.1-4.1,22.8-10.6,32.1-19.4c0.3-0.3,0.5-0.8,0.5-1.2c0-11.2,0-22.5,0-33.7
	c0-0.2,0-0.4-0.1-0.7C276.4,253.1,248.6,264.6,216.8,266.8z M431.2,362.9c-0.3,0-0.4,0-0.6,0c-11.4,0-22.7,0-34.1,0
	c-0.4,0-0.8,0.2-1.1,0.5c-2.7,3.3-5.6,6.4-8.1,9.8c-10.1,14.2-15.3,30.2-15.8,47.6c0,0.6,0.1,1,0.6,1.4c7.9,7.9,15.8,15.8,23.7,23.7
	c0.2,0.2,0.4,0.3,0.6,0.5C398.7,414.8,410.3,387,431.2,362.9z M300.4,486.4c0-0.3,0-0.4,0-0.6c0-11.3,0-22.7,0-34
	c0-0.4-0.3-0.9-0.6-1.2c-6.5-6.2-13.7-11.2-21.8-15.1c-11.2-5.4-23.1-8.3-35.6-8.6c-0.6,0-1.1,0.2-1.5,0.6
	c-7.8,7.9-15.7,15.7-23.6,23.6c-0.2,0.2-0.4,0.4-0.6,0.7C248.5,454,276.3,465.5,300.4,486.4z M307.7,486.5
	c24.1-21,51.9-32.5,83.7-34.7c-0.2-0.2-0.3-0.3-0.4-0.5c-7.5-7.5-15-15-22.6-22.5c-0.3-0.3-0.8-0.4-1.2-0.4
	c-5.7,0-11.3,0.7-16.8,1.9c-16.2,3.5-30.2,11-42.1,22.5c-0.4,0.4-0.6,0.9-0.6,1.5c0,10.4,0,20.8,0,31.3
	C307.7,485.7,307.7,486,307.7,486.5z M360.8,421.4c0.1-0.1,0.1-0.2,0.2-0.3c-0.5-0.4-1-0.8-1.5-1.3c-8.1-8.1-16.2-16.2-24.3-24.3
	c-0.4-0.4-0.8-0.6-1.4-0.5c-1.3,0.2-2.7,0.2-4,0.4c-8.2,1.2-15.4,4.7-21.5,10.2c-0.3,0.3-0.5,0.8-0.5,1.2c0,11.9,0,23.8,0,35.7
	c0,0.2,0,0.5,0.1,0.8c7.6-6.4,15.8-11.5,24.9-15.2C341.6,424.4,351,422.2,360.8,421.4z M243.4,414.7c0.2-0.2,0.4-0.3,0.5-0.4
	c8-8,16.1-16.1,24.1-24.1c0.2-0.2,0.4-0.7,0.4-1c-0.1-1.4-0.2-2.8-0.4-4.2c-1.2-8.2-4.7-15.4-10.3-21.6c-0.3-0.3-0.8-0.5-1.2-0.5
	c-11.2,0-22.4,0-33.6,0c-0.3,0-0.5,0-0.9,0.1C234.4,378,241.5,395.2,243.4,414.7z M248.6,298.6c0.3,0.3,0.5,0.5,0.7,0.7
	c2.6,2.6,5.1,5.1,7.7,7.7c5.3,5.3,10.7,10.7,16.1,16c0.3,0.3,0.7,0.5,1.1,0.5c1.4-0.1,2.8-0.2,4.1-0.4c8.2-1.2,15.4-4.6,21.6-10.1
	c0.4-0.4,0.6-0.8,0.6-1.4c0-11.2,0-22.4,0-33.5c0-0.3,0-0.6-0.1-1C285.3,289.6,268.1,296.7,248.6,298.6z M386.1,363
	c-0.2,0-0.2-0.1-0.3-0.1c-11.5,0-23,0-34.4,0c-0.3,0-0.7,0.2-0.9,0.4c-1.2,1.4-2.4,2.8-3.4,4.3c-4.5,6.5-6.9,13.7-7.3,21.7
	c0,0.3,0.2,0.7,0.4,1c8,8,16,16,23.9,24c0.2,0.2,0.3,0.3,0.6,0.4C366.6,395.2,373.7,378,386.1,363z M359.5,298.6
	c-19.5-1.9-36.7-9-51.8-21.5c0,0.3,0,0.3,0,0.4c0,11.4,0,22.8,0,34.2c0,0.4,0.3,0.8,0.6,1.1c7.1,6.4,15.5,9.9,25,10.6
	c1,0.1,1.7-0.2,2.3-0.9c7.8-7.8,15.6-15.6,23.4-23.4C359.1,299.1,359.3,298.9,359.5,298.6z M364.7,303.8c-0.2,0.2-0.4,0.3-0.5,0.4
	c-8,8-16.1,16.1-24.1,24.1c-0.2,0.2-0.4,0.6-0.4,0.9c0,0.9,0.1,1.9,0.2,2.8c1,8.8,4.5,16.5,10.4,23c0.3,0.3,0.8,0.5,1.2,0.5
	c11.3,0,22.5,0,33.8,0c0.2,0,0.4,0,0.8-0.1c-6.2-7.4-11.1-15.4-14.7-24.2C367.8,322.6,365.6,313.5,364.7,303.8z M248.4,419.6
	c0.1,0.1,0.2,0.2,0.3,0.4c19.4,1.9,36.6,9,51.7,21.5c0-0.5,0-0.9,0-1.2c0-10.7,0-21.4,0-32.2c0-1.5-0.5-2.5-1.6-3.4
	c-7.1-5.8-15.1-9.1-24.3-9.7c-0.8,0-1.3,0.2-1.8,0.7c-7.8,7.8-15.5,15.6-23.3,23.3C249.2,419.3,248.8,419.4,248.4,419.6z M222,355.6
	c0.2,0.1,0.2,0.1,0.3,0.1c11.5,0,23,0,34.5,0c0.3,0,0.7-0.2,0.8-0.4c1.5-2,3.2-3.9,4.5-6c3.9-6.1,5.9-12.8,6.2-20
	c0-0.3-0.2-0.7-0.4-1c-8-8-15.9-15.9-23.9-23.9c-0.2-0.2-0.4-0.3-0.6-0.5C241.5,323.4,234.4,340.5,222,355.6z M327.7,388.3
	c-6.7-6.7-13.3-13.3-19.9-19.9c0,9.3,0,18.7,0,28.2C314.6,391.9,320.8,389.7,327.7,388.3z M300.4,350.3c0-9.4,0-18.9,0-28.4
	c-3.1,2.1-6.2,3.9-9.6,5.3c-3.4,1.4-6.9,2.4-10.5,3C287,337,293.7,343.6,300.4,350.3z M307.7,350.1c6.6-6.6,13.3-13.3,20-19.9
	c-3.5-0.6-7-1.5-10.3-3c-3.3-1.5-6.5-3.3-9.6-5C307.7,331.5,307.7,340.9,307.7,350.1z M341.5,355.6c-4.4-6.2-7.1-12.8-8.3-19.9
	c-6.7,6.7-13.3,13.3-19.9,19.9C322.5,355.6,331.9,355.6,341.5,355.6z M275,382.9c6.7-6.7,13.4-13.4,20-20c-9.3,0-18.8,0-28.3,0
	c2.2,3.1,3.9,6.2,5.3,9.6C273.4,375.9,274.4,379.4,275,382.9z M333.1,383c1.2-7.2,4-13.9,8.3-20c-9.6,0-19,0-28.3,0
	C319.8,369.6,326.4,376.3,333.1,383z M266.7,355.6c9.6,0,19,0,28.1,0c-6.6-6.6-13.2-13.2-19.8-19.9
	C273.7,342.8,271,349.5,266.7,355.6z M300.4,368.4c-6.7,6.6-13.3,13.3-20,20c7.2,1.2,13.9,4,20,8.3
	C300.4,387.1,300.4,377.7,300.4,368.4z"/>
<g id="XMLID_1_">
	<path id="XMLID_9_" class="st1" d="M263.4,340.1c-18.7-24.3-64.8-53.7-75-78.8c0,0-17.5,18.7-15.8,95.9s82.2,100.6,112.9,38.8
		C285.6,396,282.2,364.4,263.4,340.1z M229.1,418.5c-36.4-1.7-47-40.5-43.2-76.3c3.8-35.8,8.9-50.3,8.9-50.3s1.7,11.9,29.4,28.6
		s48.5,45.7,55.4,73.3C279.6,393.8,265.4,420.2,229.1,418.5z"/>
	<path id="XMLID_10_" class="st2" d="M224.2,320.5c-27.7-16.6-29.4-28.6-29.4-28.6s-5.1,14.5-8.9,50.3c-3.8,35.8,6.8,74.6,43.2,76.3
		c36.4,1.7,50.6-24.7,50.6-24.7C270.5,360.1,251.9,337.2,224.2,320.5z"/>
</g>
<g id="XMLID_4_">
	<path id="XMLID_6_" class="st1" d="M324.5,396c30.7,61.8,111.2,38.4,112.9-38.8s-15.8-95.9-15.8-95.9c-10.2,25.1-56.2,54.5-75,78.8
		S324.5,396,324.5,396z M330.5,393.8c6.9-27.6,27.7-56.7,55.4-73.3s29.4-28.6,29.4-28.6s5.1,14.5,8.9,50.3
		c3.8,35.8-6.8,74.6-43.2,76.3C344.7,420.2,330.5,393.8,330.5,393.8z"/>
	<path id="XMLID_5_" class="st2" d="M385.9,320.5c27.7-16.6,29.4-28.6,29.4-28.6s5.1,14.5,8.9,50.3c3.8,35.8-6.8,74.6-43.2,76.3
		c-36.4,1.7-50.6-24.7-50.6-24.7C339.6,360.1,358.2,337.2,385.9,320.5z"/>
</g>
</svg>
