<?xml version="1.0" encoding="utf-8"?>
<!-- Generator: Adobe Illustrator 16.0.0, SVG Export Plug-In . SVG Version: 6.00 Build 0)  -->
<!DOCTYPE svg PUBLIC "-//W3C//DTD SVG 1.1//EN" "http://www.w3.org/Graphics/SVG/1.1/DTD/svg11.dtd">
<svg version="1.1" id="Layer_1" xmlns="http://www.w3.org/2000/svg" xmlns:xlink="http://www.w3.org/1999/xlink" x="0px" y="0px"
	 width="1500px" height="1500px" viewBox="0 0 1500 1500" enable-background="new 0 0 1500 1500" xml:space="preserve">
<g>
	<g>
		<path fill="#AB562E" d="M771.182,544.008l45.457,139.639h146.678c1.612-7.243,4.836-13.283,9.65-18.096
			c7.242-7.243,17.301-11.285,28.178-11.285c10.467,0,20.525,4.042,27.359,11.285c7.244,6.834,12.08,16.893,12.08,28.155
			c0,10.876-4.836,20.117-12.08,27.36c-6.834,6.856-16.893,12.079-27.359,12.079c-9.65,0-17.711-4.019-24.953-9.264l-119.114,85.714
			l45.274,139.639c1.204,0,2.021,0,3.225,0c10.059,0,20.117,4.837,27.156,12.08c7.039,6.834,12.079,16.893,12.079,26.951
			c0,11.262-5.04,21.32-12.079,28.563c-7.039,6.834-17.098,10.876-27.156,10.876c-11.262,0-21.32-4.042-28.382-10.876
			c-7.038-7.243-11.058-17.302-11.058-28.563c0-4.836,0.999-8.855,2.021-14.077l-118.115-86.917L630.93,974.188
			c2.021,5.222,3.02,9.241,3.02,14.077c0,11.262-4.019,21.32-11.058,28.563c-8.242,6.834-17.301,10.876-28.359,10.876
			c-11.081,0-20.14-4.042-28.178-10.876c-7.243-7.243-11.262-17.302-11.262-28.563c0-10.059,4.019-20.117,11.262-26.951
			c8.038-7.243,17.097-12.08,28.178-12.08c0.999,0,0.999,0,1.998,0l45.479-139.639l-118.114-85.714
			c-7.039,5.245-16.303,9.264-25.135,9.264c-11.285,0-21.343-5.223-28.382-12.079c-7.039-7.243-11.058-16.484-11.058-27.36
			c0-11.262,4.019-21.32,11.058-28.155c7.039-7.243,17.097-11.285,28.382-11.285c11.058,0,20.117,4.042,27.156,11.285
			c5.018,4.813,9.06,10.853,11.058,18.096h146.474l45.479-139.639c-3.224-1.998-5.245-4.019-7.243-6.017
			c-7.039-6.857-11.08-16.098-11.08-26.974c0-11.262,4.042-21.32,11.08-28.563c7.243-6.834,17.302-10.876,28.359-10.876
			c11.08,0,20.117,4.042,27.156,10.876c7.242,7.243,12.079,17.302,12.079,28.563c0,10.876-4.837,20.117-12.079,26.974
			C775.201,539.989,773.18,542.01,771.182,544.008z"/>
		<path fill="#BE6A2D" d="M799.541,696.521l-44.457-167.385c3.02-1.204,6.039-2.021,8.037-5.245c4.02-2.816,6.04-8.038,6.04-12.875
			c0-5.222-2.021-10.059-6.04-13.283c-3.02-4.019-8.037-6.04-13.078-6.04c-5.018,0-10.059,2.021-14.282,6.04
			c-2.815,3.224-4.836,8.061-4.836,13.283c0,4.836,2.021,10.059,4.836,12.875c3.224,3.224,6.244,4.041,9.264,5.245l-44.48,167.385
			l-1.998,7.243h-8.061l-172.63-9.241c0-0.817,0-0.817,0-0.817c0-5.223-1.999-10.059-6.017-14.077
			c-3.02-3.225-8.265-5.245-13.079-5.245c-5.245,0-10.263,2.021-13.283,5.245c-4.019,4.019-6.04,8.854-6.04,14.077
			c0,4.836,2.021,10.059,6.04,12.874c3.02,4.019,8.038,6.04,13.283,6.04c4.814,0,10.059-2.021,13.079-6.04
			c0.999-0.795,1.998-1.998,2.997-2.815l145.271,93.774l6.04,5.222l-2.021,6.04l-62.554,162.572
			c-2.021-1.227-5.041-2.021-7.039-2.021c-5.041,0-10.082,2.815-13.079,6.04c-4.042,2.815-6.04,8.038-6.04,12.874
			c0,6.04,1.998,10.059,6.04,14.077c2.997,3.225,8.038,5.245,13.079,5.245c5.018,0,10.059-2.021,13.056-5.245
			c4.246-4.019,6.244-8.037,6.244-14.077c0-4.019-1.998-8.061-4.019-12.079l134.19-109.055l6.04-4.02l6.04,4.02l134.19,109.055
			c-2.998,4.019-4.02,8.061-4.02,12.079c0,6.04,2.021,10.059,5.041,14.077c4.223,3.225,8.242,5.245,14.281,5.245
			c5.018,0,10.059-2.021,13.078-5.245c3.021-4.019,6.04-8.037,6.04-14.077c0-4.836-3.02-10.059-6.04-12.874
			c-3.02-3.225-8.061-6.04-13.078-6.04c-3.225,0-5.223,0.795-7.242,2.021l-62.373-162.572l-2.225-6.04l6.244-5.222l145.065-93.774
			c1.204,0.817,1.204,2.021,2.407,2.815c4.041,4.019,8.061,6.04,13.691,6.04s10.467-2.021,13.691-6.04
			c4.019-2.815,5.631-8.038,5.631-12.874c0-5.223-1.612-10.059-5.631-14.077c-3.225-3.225-8.061-5.245-13.691-5.245
			s-9.65,2.021-13.691,5.245c-3.202,4.019-5.223,8.854-5.223,14.077c0,0,0,0,0,0.817l-173.63,9.241h-7.038L799.541,696.521z
			 M983.434,701.767c0-1.227,0-1.227,0-1.227S983.434,700.54,983.434,701.767z"/>
	</g>
	<path fill="#8C3A1E" d="M657.086,721.884l-0.999-0.817c-0.999,0-2.021,0.817-3.02,0.817c-0.999,1.203-1.998,1.203-1.998,1.203
		c-1.021,0-1.021,0-2.021,0c-2.021-1.203-4.019-2.021-6.04-2.021c-6.04,0-11.058,2.021-11.058,10.059
		c0,4.836,3.02,10.876,9.037,20.117c6.04,8.854,10.081,14.1,10.081,18.913c0,3.225-2.021,4.042-4.042,4.042
		c-6.04,0-10.059-8.855-12.057-14.895c0-1.204,0-1.204-1.022-1.204c0,0,0,0,0,1.204v19.322l0,0c1.022,0,1.022,0,2.021,0
		c2.021-2.43,3.02-2.43,3.02-2.43c0.999,0,0.999,0,3.02,1.203c0.999,0,3.02,1.227,6.04,1.227c4.019,0,10.059-2.43,10.059-10.468
		c0-6.039-1.022-8.854-8.061-20.117c-9.06-12.079-10.059-16.098-10.059-18.913c0-2.021,0-4.042,3.02-4.042
		c5.041,0,10.059,10.081,12.08,16.099h0.999h0.999V721.884z"/>
	<path id="_x31_" fill="#8C3A1E" d="M676.205,747.224v-20.117c0-1.204,1.204-2.021,1.204-2.021l4.042-3.201h0.999
		c0-0.817-0.999-0.817-0.999-0.817h-18.324c0,0-0.999,0-0.999,0.817h0.999l4.224,3.201c0,0,0.817,0.817,0.817,2.021v46.273
		c0,0.817-0.817,0.817-0.817,2.021l-4.224,1.998c0,0-0.999,0-0.999,1.227h0.999h18.324h0.999c0-1.227-0.999-1.227-0.999-1.227
		l-4.042-1.998c0-1.203-1.204-1.203-1.204-2.021v-22.138h12.284v22.138c0,0.817,0,0.817-1.021,2.021l-4.019,1.998c0,0,0,0,0,1.227
		l0,0h18.119c1,0,1,0,1,0c0-1.227-1-1.227-1-1.227l-3.02-1.998c-1.022-1.203-1.022-1.203-1.022-2.021v-46.273
		c0-1.204,0-2.021,1.022-2.021l3.02-3.201h1c0-0.817,0-0.817-1-0.817h-18.119c0,0,0,0,0,0.817l0,0l4.019,3.201
		c1.021,0,1.021,0.817,1.021,2.021v20.117H676.205z"/>
	<path id="_x32_" fill="#8C3A1E" d="M718.664,725.085h7.039c1.204,0,2.021,0,3.224,0.817l6.04,15.281c0,0,0,0,0.794,0l0,0v-19.3
		c0-0.817,0-0.817-0.794-0.817h-29.381c0,0-0.999,0-0.999,0.817h0.999l4.019,3.201c0,0,0.999,0.817,0.999,2.021v46.273
		c0,0.817-0.999,0.817-0.999,2.021l-4.019,1.998c0,0-0.999,0-0.999,1.227h0.999h29.381c0.794,0,0.794,0,0.794-1.227v-19.3l0,0
		c-0.794,0-0.794,0-0.794,0l-6.04,15.281c-1.203,0.817-2.021,0.817-3.224,0.817h-7.039v-22.955h3.02c0,0,1.204,0,1.204,0.817
		l4.019,5.222c0,0.817,0,0.817,0.817,0.817c0,0,0,0,0-0.817v-16.098l0,0c-0.817,0-0.817,0-0.817,0l-4.019,6.04h-1.204h-3.02V725.085
		z"/>
	<path id="_x33_" fill="#8C3A1E" d="M754.063,751.242h2.021c4.019,0,7.038,2.815,7.038,6.039v16.099
		c0,2.815,2.021,5.245,7.039,5.245h6.04c0.999,0,0.999,0,0.999,0s0-1.227-0.999-1.227l-3.021-3.201c-0.998,0-0.998,0-0.998-0.817
		v-16.099c0-4.019-4.02-7.243-7.039-8.037c4.019-2.021,8.037-5.245,8.037-14.078c0-10.081-6.039-14.1-18.096-14.1h-14.101
		c0,0-0.999,0-0.999,0.817h0.999l4.042,3.201c0,0,0.999,0.817,0.999,2.021v46.273c0,0.817-0.999,0.817-0.999,2.021l-4.042,1.998
		c0,0-0.999,0-0.999,1.227h0.999h18.119l0,0c0-1.227,0-1.227,0-1.227l-4.019-1.998c-1.021-1.203-1.021-1.203-1.021-2.021V751.242z
		 M754.063,725.085h2.021c5.04,0,8.061,2.021,8.061,10.081c0,8.833-3.021,12.058-8.061,12.058h-2.021V725.085z"/>
	<path id="_x34_" fill="#8C3A1E" d="M784.441,773.38c0,0.817,0,0.817-1.203,2.021l-2.814,1.998c-1.204,0-1.204,0-1.204,1.227l0,0
		h18.301c1.021,0,1.021,0,1.021,0c0-1.227-1.021-1.227-1.021-1.227l-2.997-1.998c-1.021-1.203-1.021-1.203-1.021-2.021v-46.273
		c0-1.204,0-2.021,1.021-2.021l2.997-3.201h1.021c0-0.817,0-0.817-1.021-0.817H779.22c0,0,0,0,0,0.817c0,0,0,0,1.204,0l2.814,3.201
		c1.203,0,1.203,0.817,1.203,2.021V773.38z"/>
	<path id="_x35_" fill="#8C3A1E" d="M814.641,725.085h7.039c0.998,0,1.998,0,3.02,0.817l6.039,15.281c0,0,0,0,1,0l0,0v-19.3
		c0-0.817,0-0.817-1-0.817h-29.176c0,0,0,0,0,0.817l0,0l4.019,3.201c0,0,0.999,0.817,0.999,2.021v46.273
		c0,0.817-0.999,0.817-0.999,2.021l-4.019,1.998c0,0,0,0,0,1.227l0,0h19.117l0,0c0-1.227,0-1.227,0-1.227l-5.04-1.998
		c0-1.203-0.999-1.203-0.999-2.021v-22.138h3.02c0,0,0.999,0,0.999,0.817l4.019,5.222c0,0.817,0,0.817,1,0.817c0,0,0,0,0-0.817
		v-16.098l0,0c-1,0-1,0-1,0l-4.019,6.04h-0.999h-3.02V725.085z"/>
	<path id="_x36_" fill="#8C3A1E" d="M850.039,725.085h7.038c1.022,0,2.021,0,3.021,0.817l6.039,15.281c0,0,0,0,0.999,0l0,0v-19.3
		c0-0.817,0-0.817-0.999-0.817h-29.381c0,0-0.795,0-0.795,0.817h0.795l4.041,3.201c0,0,1.204,0.817,1.204,2.021v46.273
		c0,0.817-1.204,0.817-1.204,2.021l-4.041,1.998c0,0-0.795,0-0.795,1.227h0.795h19.322l0,0c0-1.227,0-1.227-0.999-1.227
		l-4.019-1.998c-1.021-1.203-1.021-1.203-1.021-2.021v-22.138h3.02c0,0,0.999,0,0.999,0.817l4.042,5.222
		c0,0.817,0,0.817,0.998,0.817c0,0,0,0,0-0.817v-16.098l0,0c-0.998,0-0.998,0-0.998,0l-4.042,6.04h-0.999h-3.02V725.085z"/>
</g>
</svg>
