<?xml version="1.0" encoding="utf-8"?>
<!-- Generator: Adobe Illustrator 19.0.0, SVG Export Plug-In . SVG Version: 6.00 Build 0)  -->
<svg version="1.1" id="Layer_1" xmlns="http://www.w3.org/2000/svg" xmlns:xlink="http://www.w3.org/1999/xlink" x="0px" y="0px"
	 viewBox="0 0 600 600" style="enable-background:new 0 0 600 600;" xml:space="preserve">
<style type="text/css">
	.st0{fill:#FFFFFF;}
</style>
<path id="XMLID_212_" d="M43,164.1c0-5.7,0-11.3,0-17c0.5-1.3,1.3-2.5,1.4-3.8c4.6-35.5,23-61.9,54.1-78.8
	c11.1-6,24.1-8.5,36.2-12.6c8.5,0,17,0,25.5,0c1,0.5,1.9,1.2,3,1.4c34.1,5.4,59.3,23.5,76.2,53.4c2,3.6,3.8,7.3,6,11.6
	c36.1-12.8,71.8-12.7,107.6,0.2c1.2-2.4,2.2-4.3,3.2-6.3c18.3-37,59.1-61,97.9-57.8c46.1,3.8,81.6,31.6,94.3,74
	c1.7,5.6,2.9,11.3,4.3,17c0,7.9,0,15.9,0,23.8c-0.5,1.3-1.3,2.5-1.5,3.9c-6.4,42.9-39.2,77.7-81.6,85.8c-10.1,1.9-20.5,2-32.3,3
	c2.5,7.9,3.9,15.8,7.3,22.8c9.8,20,20.4,39.7,30.7,59.5c13.9,26.5,28.5,52.7,41.5,79.7c12.4,25.9-0.1,57-25.8,66.3
	c-8.1-20.1-15.9-40.3-24.5-60.3c-12.1-28.2-24.3-56.5-37.5-84.2c-7.6-15.9-19.1-29.1-38.8-28c-20.2,1.2-36.8,12.4-55,23.2
	c8.8,3.4,16.1,6.2,24.4,9.3c-13.5,5.9-26.1,11.3-38.6,16.7c0.3,1,0.6,1.9,0.9,2.9c9.5,0,19.2,1.4,28.3-0.4
	c11.4-2.2,23-5.8,33.3-11.1c11.3-5.8,12.5-14.9,5.7-25.7c-1.9-3.1-4-6-7.6-11.6c7.7,0.5,14.4-0.9,18.6,1.6c8.1,5,17,11,21.9,18.9
	c23.5,38.2,39.2,80,53.5,122.3c0.6,1.7,0.5,3.7,0.7,5.7c-1.4,0.1-2.3,0.3-3,0.2c-1.4-0.3-2.7-0.9-4-1.4c-15.6-6.6-31.9-9.4-48.8-8.5
	c-26.9,1.4-42.5,20.8-37.7,46.6c1.3,6.8,0.3,13.2-5.9,17.4c-6.4,4.3-13.1,4.6-19.8,0.2c-1.6-1-4.3-2-5.7-1.3
	c-16.2,8.3-32.3,16.9-48.4,25.5c-1.1,0-2.3,0-3.4,0C282,538,264.4,527.9,247.1,518c-1.2,0.8-1.7,1.1-2.1,1.5
	c-7.4,7.3-15.8,9-22.7,4.4c-6.9-4.6-8.8-12.2-5.5-21.7c0.5-1.3,1.2-2.7,1.1-4c-0.5-18-17-37.3-35.3-39.8c-9-1.2-19.1-1.5-27.5,1.3
	c-13.6,4.5-26.2,11.8-38.7,17.7c-0.1,0.7-0.2-0.5,0.2-1.4c20.8-46.7,41.3-93.5,62.6-139.9c6.4-14,21-18.7,37.3-14.1
	c-2.5,4.6-4.9,9.1-7.5,14c13,4.8,25.1,9.2,38.2,14.1c-8.6,3.8-16.1,7.1-24.7,10.9c18.8,10,37.4,9.5,56.5,8.4
	c0-5.8,0.4-10.7-0.2-15.4c-0.3-2.5-1.5-5.7-3.3-7c-13.1-8.9-26.1-18.1-39.9-25.7c-19.3-10.6-52.9-7.3-65.9,20.8
	c-10.3,22.3-21.5,44.2-31.3,66.7c-10.2,23.3-19.3,47-28.8,70.6c-1.6,3.9-2.8,7.8-8.3,4.5C78.8,470.4,68,450,81.3,424.7
	c22.9-43.5,45.2-87.3,66.9-131.4c4.9-10,6.6-21.7,10.1-33.4c-4.6,0-7.1,0-9.6,0C104.4,259,72,238.8,53,198.8
	C47.9,188,46.3,175.7,43,164.1z M264,420.3c6.4,4.7,12.3,9,18.5,13.5c-14.9,20.2-29.8,40.2-45.6,61.5c11.3,2.7,10.4-9.5,17-10.9
	c0,4.7,0,9.3,0,14c-3.3,0.4-6,0.8-8.6,1.2c-0.3,0.7-0.5,1.4-0.8,2.1c2.3,1.2,4.6,3.4,7,3.4c31.7,0.2,63.4,0.2,95.1-0.1
	c2.5,0,5-2.4,7.5-3.7c-0.3-0.7-0.6-1.3-0.9-2c-3-0.2-6-0.4-8.8-0.6c0-4.8,0-9,0-14.6c3.3,4.4,5.5,7.8,8.2,10.6
	c1.2,1.2,3.5,1.4,5.4,2c-0.3-1.9,0.1-4.3-0.9-5.7c-7.1-9.9-14.4-19.6-21.7-29.3c-7-9.4-14-18.8-20.7-27.8c6.7-5,12.7-9.4,18.9-14
	c13.8,10.8,19.7,26.8,24.8,43.3c2.7-15.4-3.6-27.3-13.5-38.2c-5.9-6.4-10.8-13.7-17.5-22.4c6.5-1.1,10-2.3,13.5-2.2
	c11.3,0.3,22.6,0.8,33.8,1.6c6.3,0.5,11.2-0.8,12.9-5.9c-7.2,0-14.5,1-21.4-0.2c-12.5-2.2-24.5-2.6-36.6,2.4
	c-2.2,0.9-5.7-0.1-8.2-1.1c-16.9-7.4-33.2-7.4-49.3,2.4c-2.3,1.4-6.1,1-9.1,0.8c-9.7-0.6-19.4-2.1-29.1-2.3
	c-8.9-0.1-17.9,1.1-26.3,1.6c2.1,4.4,6.7,6,13.2,4.8c6.1-1.1,12.4-2,18.5-1.9c8.7,0.1,17.4,1.1,26.2,1.8c0.4,1,0.8,2,1.2,3.1
	c-10.8,19.2-35.9,31.3-30.5,61.1C241.4,448,248.3,431,264,420.3z M151.6,340.5c12.7-12,25.1-24.4,38.3-35.8
	c16.3-14.1,34.5-15.4,53.4-5.1c7.6,4.1,15.1,8.2,24.7,13.4c-18.8-22.6-50.9-29.6-74.5-17.3C174.4,305.6,161.3,321.7,151.6,340.5z
	 M335.1,312.3c7.9-4.2,15.7-8.4,23.6-12.6c18.2-9.7,35.4-7.8,51.2,5.1c8.7,7.1,16.7,15.2,24.9,22.9c4.4,4.2,8.8,8.4,13.1,12.7
	C420.1,286.9,371.2,274.8,335.1,312.3z M252.6,513.3c8.2,5.1,90.3,4.7,96.2,0C316.9,513.3,285.8,513.3,252.6,513.3z M356.9,511
	c0.8,6.2,4.3,9.9,10.5,9.7c6.2-0.3,10-4.5,9.7-10.5c-0.3-5.8-4-10-10.5-9.7C360.2,500.9,357.2,504.8,356.9,511z M221.3,508.8
	c-0.1,7.5,3.8,11,9.7,11.4c6.2,0.4,10.2-3.8,10.5-9.8c0.3-6-3.4-10.1-9.8-10.3C225.4,499.9,222,503.5,221.3,508.8z M285.1,375.7
	c11.4-9.5,16.7-9.3,26.5-0.2c-1.7-7.1-6.2-10.3-11.9-10.7C293.5,364.5,288.5,367.2,285.1,375.7z M312.1,384.8
	c-3.2-8.1-8.1-11.4-15.2-10.3c-5.1,0.8-9.9,2.8-10.6,10C295.7,375.7,301.5,375.7,312.1,384.8z"/>
<path id="XMLID_173_" d="M298.6,392.9c8.8,3.1,17.4,4.9,24.7,9.1c9.6,5.6,9.4,15.2,0.8,22.2c-12.4,10.1-38.6,10.2-50.9,0.1
	c-8.5-7-8.8-16.7,0.8-22.3C281.2,397.8,289.9,396,298.6,392.9z M318.5,406.7c-11.4-9.2-29.4-9.1-39.1,0
	C292.5,406.7,304.8,406.7,318.5,406.7z"/>
<path id="XMLID_172_" d="M295.6,435.3c0,20.7,0,41.5,0,62.9c-3.7,0-7.2,0-12.2,0c0-5.8,0-11.8,0-17.8c0-11-0.2-22,0-33
	C283.5,439.3,288.3,434.6,295.6,435.3z"/>
<path id="XMLID_171_" d="M316.5,498.4c-4.6,0-8.5,0-13,0c0-21.1,0-42.3,0-64.7c7.7,2.9,12.4,8.6,12.7,15.3
	C317.1,465.3,316.5,481.6,316.5,498.4z"/>
<path id="XMLID_170_" d="M261.9,498.4c-3.5-17.5-0.2-32.1,14-43.8c0,14.6,0,28.9,0,43.8C271.4,498.4,266.7,498.4,261.9,498.4z"/>
<path id="XMLID_169_" d="M323.7,498.3c0-13.6,0-26.9,0-40.5c14,10.6,15.3,24.7,12.5,40.5C332.2,498.3,328.2,498.3,323.7,498.3z"/>
<path id="XMLID_168_" class="st0" d="M318.5,406.7c-13.6,0-26,0-39.1,0C289,397.7,307.1,397.6,318.5,406.7z"/>
</svg>
